<?xml version="1.0" encoding="UTF-8"?>
<svg id="Layer_1" data-name="Layer 1" xmlns="http://www.w3.org/2000/svg" viewBox="0 0 86.99 27.05">
  <defs>
    <style>
      .cls-1 {
        fill: #2191D0;
      }
    </style>
  </defs>
  <g>
    <g>
      <path class="cls-1" d="M2.5,21.67h.84v2.26h3v-2.26h.84v5.38h-.84v-2.34h-3v2.34h-.84v-5.38Z"/>
      <path class="cls-1" d="M8.28,21.67h3.95v.77h-3.12v1.48h2.64v.77h-2.64v1.58h3.12v.77h-3.95v-5.38Z"/>
      <path class="cls-1" d="M13.03,23.88c0-1.42.82-2.32,2.33-2.32s2.35.9,2.35,2.32v3.16h-.84v-1.7h-3.02v1.7h-.81v-3.16ZM16.87,24.57v-.69c0-.97-.51-1.55-1.51-1.55s-1.51.58-1.51,1.55v.69h3.02Z"/>
      <path class="cls-1" d="M18.69,21.67h.84v4.6h3.02v.77h-3.86v-5.38Z"/>
      <path class="cls-1" d="M23.7,22.44h-1.7v-.77h4.25v.77h-1.71v4.6h-.84v-4.6Z"/>
      <path class="cls-1" d="M27.03,21.67h.84v2.26h3v-2.26h.84v5.38h-.84v-2.34h-3v2.34h-.84v-5.38Z"/>
      <path class="cls-1" d="M32.53,24.36c0-1.61,1.18-2.79,2.86-2.79,1.37,0,2.42.81,2.75,1.99h-.89c-.29-.73-.97-1.22-1.87-1.22-1.19,0-2.01.85-2.01,2.02s.82,2.02,2.01,2.02c.9,0,1.58-.48,1.87-1.22h.89c-.33,1.18-1.38,1.99-2.75,1.99-1.68,0-2.86-1.18-2.86-2.79Z"/>
      <path class="cls-1" d="M38.85,23.88c0-1.42.82-2.32,2.33-2.32s2.35.9,2.35,2.32v3.16h-.84v-1.7h-3.02v1.7h-.81v-3.16ZM42.69,24.57v-.69c0-.97-.51-1.55-1.51-1.55s-1.51.58-1.51,1.55v.69h3.02Z"/>
      <path class="cls-1" d="M44.5,21.67h2.31c1.32,0,1.9.73,1.9,1.73,0,.81-.38,1.44-1.22,1.65l1.42,2h-1l-1.28-1.92h-1.28v1.92h-.84v-5.38ZM46.82,24.35c.78,0,1.04-.41,1.04-.95s-.27-.95-1.04-.95h-1.48v1.91h1.48Z"/>
      <path class="cls-1" d="M49.66,21.67h3.95v.77h-3.12v1.48h2.64v.77h-2.64v1.58h3.12v.77h-3.95v-5.38Z"/>
    </g>
    <g>
      <path class="cls-1" d="M56.94,25.51h.83c.02.53.42.87,1.15.87s1.17-.35,1.17-.87c0-.57-.58-.66-1.22-.77-.84-.15-1.8-.31-1.8-1.52,0-.98.74-1.65,1.87-1.65s1.84.64,1.87,1.6h-.8c-.02-.48-.39-.83-1.06-.83s-1.08.36-1.08.85c0,.57.58.66,1.23.77.85.15,1.81.31,1.81,1.52,0,1.03-.79,1.67-1.99,1.67s-1.96-.62-1.98-1.64Z"/>
      <path class="cls-1" d="M63.11,24.74l-2.13-3.07h1l1.55,2.34,1.55-2.34h.98l-2.11,3.05v2.33h-.84v-2.3Z"/>
      <path class="cls-1" d="M66.11,25.51h.83c.02.53.42.87,1.15.87s1.17-.35,1.17-.87c0-.57-.58-.66-1.22-.77-.84-.15-1.8-.31-1.8-1.52,0-.98.74-1.65,1.87-1.65s1.84.64,1.87,1.6h-.8c-.02-.48-.39-.83-1.06-.83s-1.08.36-1.08.85c0,.57.58.66,1.23.77.85.15,1.81.31,1.81,1.52,0,1.03-.79,1.67-1.99,1.67s-1.96-.62-1.98-1.64Z"/>
      <path class="cls-1" d="M72.12,22.44h-1.7v-.77h4.25v.77h-1.71v4.6h-.84v-4.6Z"/>
      <path class="cls-1" d="M75.44,21.67h3.95v.77h-3.12v1.48h2.64v.77h-2.64v1.58h3.12v.77h-3.95v-5.38Z"/>
      <path class="cls-1" d="M80.2,23.54c0-1.33.81-1.97,1.84-1.97.71,0,1.26.31,1.55.9.3-.58.85-.9,1.55-.9,1.04,0,1.84.64,1.84,1.97v3.51h-.84v-3.51c0-.82-.46-1.2-1.07-1.2s-1.07.39-1.07,1.2v3.51h-.84v-3.51c0-.81-.45-1.2-1.07-1.2s-1.07.38-1.07,1.2v3.51h-.84v-3.51Z"/>
    </g>
  </g>
  <g>
    <path class="cls-1" d="M0,12.7V0h2.5v4.61h7.17v2.29H2.5v5.8c0,2.06,1.08,2.95,2.71,2.95s2.74-.87,2.74-2.95v-.29h2.48v.29c0,3.53-2.11,5.27-5.22,5.27S0,16.23,0,12.7Z"/>
    <path class="cls-1" d="M11.99,11.22c0-4.08,2.9-6.96,7.03-6.96s6.93,2.79,6.93,6.96v6.4h-2.29v-2.85c-.87,2.11-2.79,3.19-5.06,3.19-3.4,0-6.61-2.45-6.61-6.75ZM23.48,11.12c0-2.63-1.79-4.53-4.48-4.53s-4.48,1.9-4.48,4.53,1.79,4.53,4.48,4.53,4.48-1.9,4.48-4.53Z"/>
    <path class="cls-1" d="M28.54,10.09c0-3.98,2.32-5.82,5.38-5.82,2,0,3.69.9,4.58,2.58.9-1.69,2.56-2.58,4.58-2.58,3.06,0,5.38,1.84,5.38,5.82v7.54h-2.5v-7.54c0-2.42-1.29-3.5-3.11-3.5s-3.08,1.13-3.08,3.5v7.54h-2.5v-7.54c0-2.37-1.34-3.5-3.11-3.5s-3.11,1.08-3.11,3.5v7.54h-2.5v-7.54Z"/>
    <path class="cls-1" d="M50.52,11.22c0-4.08,2.9-6.96,7.03-6.96s6.93,2.79,6.93,6.96v6.4h-2.29v-2.85c-.87,2.11-2.79,3.19-5.06,3.19-3.4,0-6.61-2.45-6.61-6.75ZM62.01,11.12c0-2.63-1.79-4.53-4.48-4.53s-4.48,1.9-4.48,4.53,1.79,4.53,4.48,4.53,4.48-1.9,4.48-4.53Z"/>
    <path class="cls-1" d="M67.07,10.09c0-3.98,2.32-5.82,5.38-5.82,2,0,3.69.9,4.58,2.58.9-1.69,2.56-2.58,4.58-2.58,3.06,0,5.38,1.84,5.38,5.82v7.54h-2.5v-7.54c0-2.42-1.29-3.5-3.11-3.5s-3.08,1.13-3.08,3.5v7.54h-2.5v-7.54c0-2.37-1.34-3.5-3.11-3.5s-3.11,1.08-3.11,3.5v7.54h-2.5v-7.54Z"/>
  </g>
</svg>