<?xml version="1.0" encoding="UTF-8"?>
<svg id="Layer_1" data-name="Layer 1" xmlns="http://www.w3.org/2000/svg" viewBox="0 0 111.31 49.63">
  <defs>
    <style>
      .cls-1 {
        fill: #10195A;
      }

      .cls-2 {
        fill: #10195A;
      }
    </style>
  </defs>
  <g>
    <g>
      <path class="cls-2" d="M2.39,44.41h.8v2.15h2.86v-2.15h.8v5.12h-.8v-2.23h-2.86v2.23h-.8v-5.12Z"/>
      <path class="cls-2" d="M7.89,44.41h3.77v.74h-2.97v1.41h2.51v.74h-2.51v1.5h2.97v.74h-3.77v-5.12Z"/>
      <path class="cls-2" d="M12.42,46.51c0-1.36.78-2.21,2.22-2.21s2.24.85,2.24,2.21v3.02h-.8v-1.62h-2.88v1.62h-.78v-3.02ZM16.08,47.17v-.66c0-.92-.49-1.47-1.44-1.47s-1.44.55-1.44,1.47v.66h2.88Z"/>
      <path class="cls-2" d="M17.81,44.41h.8v4.39h2.87v.74h-3.67v-5.12Z"/>
      <path class="cls-2" d="M22.59,45.14h-1.62v-.74h4.05v.74h-1.63v4.39h-.8v-4.39Z"/>
      <path class="cls-2" d="M25.75,44.41h.8v2.15h2.86v-2.15h.8v5.12h-.8v-2.23h-2.86v2.23h-.8v-5.12Z"/>
      <path class="cls-2" d="M31,46.97c0-1.54,1.13-2.66,2.73-2.66,1.31,0,2.31.77,2.62,1.9h-.85c-.27-.7-.92-1.16-1.78-1.16-1.14,0-1.92.81-1.92,1.93s.78,1.93,1.92,1.93c.85,0,1.5-.46,1.78-1.16h.85c-.31,1.13-1.32,1.9-2.62,1.9-1.6,0-2.73-1.13-2.73-2.66Z"/>
      <path class="cls-2" d="M37.02,46.51c0-1.36.78-2.21,2.22-2.21s2.24.85,2.24,2.21v3.02h-.8v-1.62h-2.88v1.62h-.78v-3.02ZM40.68,47.17v-.66c0-.92-.49-1.47-1.44-1.47s-1.44.55-1.44,1.47v.66h2.88Z"/>
      <path class="cls-2" d="M42.41,44.41h2.2c1.26,0,1.81.7,1.81,1.64,0,.77-.36,1.37-1.17,1.57l1.36,1.9h-.96l-1.22-1.83h-1.22v1.83h-.8v-5.12ZM44.62,46.96c.74,0,.99-.39.99-.91s-.26-.91-.99-.91h-1.41v1.82h1.41Z"/>
      <path class="cls-2" d="M47.32,44.41h3.77v.74h-2.97v1.41h2.51v.74h-2.51v1.5h2.97v.74h-3.77v-5.12Z"/>
    </g>
    <g>
      <path class="cls-2" d="M54.26,48.06h.79c.02.5.4.83,1.1.83s1.11-.33,1.11-.83c0-.54-.55-.63-1.17-.74-.8-.14-1.72-.3-1.72-1.45,0-.93.71-1.57,1.78-1.57s1.75.61,1.79,1.53h-.76c-.02-.45-.38-.79-1.01-.79s-1.03.34-1.03.81c0,.54.56.63,1.17.74.81.14,1.72.3,1.72,1.45,0,.98-.75,1.59-1.9,1.59s-1.86-.6-1.89-1.57Z"/>
      <path class="cls-2" d="M60.13,47.33l-2.03-2.93h.96l1.47,2.23,1.48-2.23h.93l-2.01,2.91v2.22h-.8v-2.19Z"/>
      <path class="cls-2" d="M62.99,48.06h.79c.02.5.4.83,1.1.83s1.11-.33,1.11-.83c0-.54-.55-.63-1.17-.74-.8-.14-1.72-.3-1.72-1.45,0-.93.71-1.57,1.78-1.57s1.75.61,1.79,1.53h-.76c-.02-.45-.38-.79-1.01-.79s-1.03.34-1.03.81c0,.54.56.63,1.17.74.81.14,1.72.3,1.72,1.45,0,.98-.75,1.59-1.9,1.59s-1.86-.6-1.89-1.57Z"/>
      <path class="cls-2" d="M68.72,45.14h-1.62v-.74h4.05v.74h-1.63v4.39h-.8v-4.39Z"/>
      <path class="cls-2" d="M71.89,44.41h3.77v.74h-2.97v1.41h2.51v.74h-2.51v1.5h2.97v.74h-3.77v-5.12Z"/>
      <path class="cls-2" d="M76.42,46.18c0-1.27.77-1.88,1.75-1.88.67,0,1.2.3,1.48.85.28-.56.81-.85,1.48-.85.99,0,1.75.61,1.75,1.88v3.34h-.8v-3.34c0-.78-.44-1.14-1.02-1.14s-1.02.38-1.02,1.14v3.34h-.8v-3.34c0-.77-.43-1.14-1.02-1.14s-1.02.36-1.02,1.14v3.34h-.8v-3.34Z"/>
    </g>
  </g>
  <g>
    <path class="cls-2" d="M0,35.86v-12.1h2.39v4.39h6.83v2.18H2.39v5.52c0,1.96,1.03,2.81,2.59,2.81s2.61-.83,2.61-2.81v-.28h2.36v.28c0,3.36-2.01,5.02-4.97,5.02s-4.97-1.66-4.97-5.02Z"/>
    <path class="cls-2" d="M11.43,34.45c0-3.89,2.76-6.63,6.7-6.63s6.6,2.66,6.6,6.63v6.1h-2.18v-2.71c-.83,2.01-2.66,3.04-4.82,3.04-3.24,0-6.3-2.34-6.3-6.43ZM22.37,34.35c0-2.51-1.71-4.32-4.27-4.32s-4.27,1.81-4.27,4.32,1.71,4.32,4.27,4.32,4.27-1.81,4.27-4.32Z"/>
    <path class="cls-2" d="M27.2,33.37c0-3.79,2.21-5.55,5.12-5.55,1.91,0,3.51.85,4.37,2.46.85-1.61,2.44-2.46,4.37-2.46,2.91,0,5.12,1.76,5.12,5.55v7.18h-2.39v-7.18c0-2.31-1.23-3.34-2.96-3.34s-2.94,1.08-2.94,3.34v7.18h-2.38v-7.18c0-2.26-1.28-3.34-2.96-3.34s-2.96,1.03-2.96,3.34v7.18h-2.39v-7.18Z"/>
    <path class="cls-2" d="M48.14,34.45c0-3.89,2.76-6.63,6.7-6.63s6.6,2.66,6.6,6.63v6.1h-2.18v-2.71c-.83,2.01-2.66,3.04-4.82,3.04-3.24,0-6.3-2.34-6.3-6.43ZM59.09,34.35c0-2.51-1.71-4.32-4.27-4.32s-4.27,1.81-4.27,4.32,1.71,4.32,4.27,4.32,4.27-1.81,4.27-4.32Z"/>
    <path class="cls-2" d="M63.91,33.37c0-3.79,2.21-5.55,5.12-5.55,1.91,0,3.51.85,4.37,2.46.85-1.61,2.44-2.46,4.37-2.46,2.91,0,5.12,1.76,5.12,5.55v7.18h-2.39v-7.18c0-2.31-1.23-3.34-2.96-3.34s-2.94,1.08-2.94,3.34v7.18h-2.39v-7.18c0-2.26-1.28-3.34-2.96-3.34s-2.96,1.03-2.96,3.34v7.18h-2.39v-7.18Z"/>
  </g>
  <g>
    <circle class="cls-1" cx="82.13" cy="23.12" r=".94"/>
    <circle class="cls-1" cx="82.12" cy="19.42" r="1.51"/>
    <circle class="cls-1" cx="82.12" cy="13.48" r="2.45"/>
    <circle class="cls-1" cx="82.12" cy="3.85" r="3.97"/>
    <circle class="cls-1" cx="91.78" cy="5.76" r="3.97"/>
    <circle class="cls-1" cx="99.96" cy="11.24" r="3.97"/>
    <circle class="cls-1" cx="105.43" cy="19.44" r="3.97"/>
    <circle class="cls-1" cx="107.35" cy="29.06" r="3.97"/>
    <circle class="cls-1" cx="88.1" cy="14.66" r="2.45"/>
    <circle class="cls-1" cx="93.15" cy="18.05" r="2.45"/>
    <circle class="cls-1" cx="96.53" cy="23.11" r="2.45"/>
    <circle class="cls-1" cx="97.72" cy="29.06" r="2.45"/>
    <circle class="cls-1" cx="85.82" cy="20.17" r="1.51"/>
    <circle class="cls-1" cx="88.94" cy="22.26" r="1.51"/>
    <circle class="cls-1" cx="91.03" cy="25.39" r="1.51"/>
    <circle class="cls-1" cx="91.78" cy="29.07" r="1.51"/>
    <circle class="cls-1" cx="84.41" cy="23.57" r=".94"/>
    <circle class="cls-1" cx="86.33" cy="24.86" r=".94"/>
    <circle class="cls-1" cx="87.63" cy="26.8" r=".94"/>
    <circle class="cls-1" cx="88.08" cy="29.08" r=".94"/>
  </g>
</svg>