<?xml version="1.0" encoding="UTF-8"?>
<svg id="Layer_1" data-name="Layer 1" xmlns="http://www.w3.org/2000/svg" viewBox="0 0 87.99 15.92">
  <defs>
    <style>
      .cls-1 {
        fill: #015697;
      }
    </style>
  </defs>
  <path class="cls-1" d="M4.65,3.15H0V.31h12.37v2.84h-4.65v12.77h-3.06V3.15Z"/>
  <path class="cls-1" d="M13.73,6.78c0-4.18,2.39-6.78,6.8-6.78s6.85,2.6,6.85,6.78v9.14h-3.06v-4.68h-7.62v4.68h-2.98V6.78ZM24.33,8.47v-1.69c0-2.51-1.24-3.94-3.82-3.94s-3.8,1.43-3.8,3.94v1.69h7.62Z"/>
  <path class="cls-1" d="M29.86,5.87c0-4.01,2.36-5.87,5.44-5.87,1.98,0,3.53.84,4.44,2.39.91-1.55,2.46-2.39,4.44-2.39,3.08,0,5.44,1.86,5.44,5.87v10.05h-3.06V5.87c0-2.15-1.15-3.03-2.65-3.03s-2.65.91-2.65,3.03v10.05h-3.06V5.87c0-2.12-1.15-3.03-2.65-3.03s-2.65.88-2.65,3.03v10.05h-3.06V5.87Z"/>
  <path class="cls-1" d="M52.09,6.78c0-4.18,2.39-6.78,6.8-6.78s6.85,2.6,6.85,6.78v9.14h-3.06v-4.68h-7.62v4.68h-2.98V6.78ZM62.69,8.47v-1.69c0-2.51-1.24-3.94-3.82-3.94s-3.8,1.43-3.8,3.94v1.69h7.62Z"/>
  <path class="cls-1" d="M68.23,5.87c0-4.01,2.36-5.87,5.44-5.87,1.98,0,3.53.84,4.44,2.39.91-1.55,2.46-2.39,4.44-2.39,3.08,0,5.44,1.86,5.44,5.87v10.05h-3.06V5.87c0-2.15-1.15-3.03-2.65-3.03s-2.65.91-2.65,3.03v10.05h-3.06V5.87c0-2.12-1.15-3.03-2.65-3.03s-2.65.88-2.65,3.03v10.05h-3.06V5.87Z"/>
</svg>