<?xml version="1.0" encoding="UTF-8"?>
<svg id="Layer_1" data-name="Layer 1" xmlns="http://www.w3.org/2000/svg" viewBox="0 0 94.94 70.19">
  <defs>
    <style>
      .cls-1 {
        fill: #2191D0;
      }

      .cls-2 {
        fill: #2191D0;
      }
    </style>
  </defs>
  <g>
    <circle class="cls-1" cx="32.55" cy="27.5" r="1.11"/>
    <circle class="cls-1" cx="32.55" cy="23.12" r="1.79"/>
    <circle class="cls-1" cx="32.55" cy="16.09" r="2.9"/>
    <circle class="cls-1" cx="32.55" cy="4.69" r="4.69"/>
    <circle class="cls-1" cx="43.98" cy="6.96" r="4.69"/>
    <circle class="cls-1" cx="53.65" cy="13.44" r="4.69"/>
    <circle class="cls-1" cx="60.13" cy="23.14" r="4.69"/>
    <circle class="cls-1" cx="62.4" cy="34.53" r="4.69"/>
    <circle class="cls-1" cx="39.61" cy="17.49" r="2.9"/>
    <circle class="cls-1" cx="45.59" cy="21.5" r="2.9"/>
    <circle class="cls-1" cx="49.6" cy="27.49" r="2.9"/>
    <circle class="cls-1" cx="51" cy="34.53" r="2.9"/>
    <circle class="cls-1" cx="36.92" cy="24.01" r="1.79"/>
    <circle class="cls-1" cx="40.61" cy="26.48" r="1.79"/>
    <circle class="cls-1" cx="43.08" cy="30.18" r="1.79"/>
    <circle class="cls-1" cx="43.98" cy="34.54" r="1.79"/>
    <circle class="cls-1" cx="35.25" cy="28.04" r="1.11"/>
    <circle class="cls-1" cx="37.53" cy="29.56" r="1.11"/>
    <circle class="cls-1" cx="39.06" cy="31.85" r="1.11"/>
    <circle class="cls-1" cx="39.59" cy="34.55" r="1.11"/>
  </g>
  <g>
    <g>
      <path class="cls-2" d="M2.73,64.32h.92v2.47h3.27v-2.47h.92v5.87h-.92v-2.56h-3.27v2.56h-.92v-5.87Z"/>
      <path class="cls-2" d="M9.04,64.32h4.32v.84h-3.4v1.61h2.88v.84h-2.88v1.72h3.4v.84h-4.32v-5.87Z"/>
      <path class="cls-2" d="M14.23,66.74c0-1.55.9-2.53,2.54-2.53s2.57.98,2.57,2.53v3.45h-.92v-1.86h-3.3v1.86h-.89v-3.45ZM18.42,67.49v-.75c0-1.06-.56-1.69-1.65-1.69s-1.65.63-1.65,1.69v.75h3.3Z"/>
      <path class="cls-2" d="M20.4,64.32h.92v5.02h3.29v.84h-4.21v-5.87Z"/>
      <path class="cls-2" d="M25.87,65.17h-1.86v-.84h4.64v.84h-1.87v5.02h-.92v-5.02Z"/>
      <path class="cls-2" d="M29.5,64.32h.92v2.47h3.27v-2.47h.92v5.87h-.92v-2.56h-3.27v2.56h-.92v-5.87Z"/>
      <path class="cls-2" d="M35.51,67.26c0-1.76,1.29-3.05,3.12-3.05,1.5,0,2.65.88,3.01,2.17h-.97c-.31-.8-1.06-1.33-2.04-1.33-1.3,0-2.2.93-2.2,2.21s.9,2.21,2.2,2.21c.98,0,1.72-.53,2.04-1.33h.97c-.36,1.29-1.51,2.17-3.01,2.17-1.83,0-3.12-1.29-3.12-3.05Z"/>
      <path class="cls-2" d="M42.4,66.74c0-1.55.9-2.53,2.54-2.53s2.57.98,2.57,2.53v3.45h-.92v-1.86h-3.3v1.86h-.89v-3.45ZM46.59,67.49v-.75c0-1.06-.56-1.69-1.65-1.69s-1.65.63-1.65,1.69v.75h3.3Z"/>
      <path class="cls-2" d="M48.58,64.32h2.52c1.44,0,2.07.8,2.07,1.88,0,.88-.41,1.57-1.34,1.8l1.55,2.18h-1.09l-1.4-2.1h-1.4v2.1h-.92v-5.87ZM51.11,67.25c.85,0,1.14-.45,1.14-1.04s-.3-1.04-1.14-1.04h-1.62v2.08h1.62Z"/>
      <path class="cls-2" d="M54.2,64.32h4.32v.84h-3.4v1.61h2.88v.84h-2.88v1.72h3.4v.84h-4.32v-5.87Z"/>
    </g>
    <g>
      <path class="cls-2" d="M62.15,68.51h.91c.02.57.46.95,1.26.95s1.27-.38,1.27-.95c0-.62-.63-.72-1.34-.84-.92-.16-1.96-.34-1.96-1.66,0-1.07.81-1.8,2.04-1.8s2.01.7,2.05,1.75h-.87c-.03-.52-.43-.91-1.16-.91s-1.18.39-1.18.93c0,.62.64.72,1.35.84.92.16,1.97.34,1.97,1.66,0,1.12-.86,1.82-2.17,1.82s-2.14-.68-2.16-1.79Z"/>
      <path class="cls-2" d="M68.88,67.68l-2.32-3.36h1.09l1.69,2.56,1.7-2.56h1.07l-2.31,3.33v2.54h-.92v-2.51Z"/>
      <path class="cls-2" d="M72.15,68.51h.91c.02.57.46.95,1.26.95s1.27-.38,1.27-.95c0-.62-.63-.72-1.34-.84-.92-.16-1.96-.34-1.96-1.66,0-1.07.81-1.8,2.04-1.8s2.01.7,2.05,1.75h-.87c-.03-.52-.43-.91-1.16-.91s-1.18.39-1.18.93c0,.62.64.72,1.35.84.92.16,1.97.34,1.97,1.66,0,1.12-.86,1.82-2.17,1.82s-2.14-.68-2.16-1.79Z"/>
      <path class="cls-2" d="M78.71,65.16h-1.86v-.84h4.64v.84h-1.87v5.02h-.92v-5.02Z"/>
      <path class="cls-2" d="M82.34,64.32h4.32v.84h-3.4v1.61h2.88v.84h-2.88v1.72h3.4v.84h-4.32v-5.87Z"/>
      <path class="cls-2" d="M87.53,66.36c0-1.45.88-2.15,2.01-2.15.77,0,1.37.34,1.7.98.32-.64.92-.98,1.7-.98,1.13,0,2.01.7,2.01,2.15v3.83h-.92v-3.83c0-.9-.5-1.31-1.17-1.31s-1.17.43-1.17,1.31v3.83h-.92v-3.83c0-.88-.49-1.31-1.17-1.31s-1.17.41-1.17,1.31v3.83h-.92v-3.83Z"/>
    </g>
  </g>
  <g>
    <path class="cls-2" d="M0,54.53v-13.86h2.73v5.03h7.82v2.5H2.73v6.33c0,2.24,1.18,3.22,2.96,3.22s2.99-.95,2.99-3.22v-.32h2.7v.32c0,3.85-2.3,5.75-5.69,5.75s-5.69-1.9-5.69-5.75Z"/>
    <path class="cls-2" d="M13.09,52.92c0-4.46,3.16-7.59,7.68-7.59s7.56,3.05,7.56,7.59v6.99h-2.5v-3.11c-.95,2.3-3.05,3.48-5.52,3.48-3.71,0-7.22-2.67-7.22-7.36ZM25.63,52.8c0-2.88-1.96-4.95-4.89-4.95s-4.89,2.07-4.89,4.95,1.96,4.95,4.89,4.95,4.89-2.07,4.89-4.95Z"/>
    <path class="cls-2" d="M31.15,51.68c0-4.34,2.53-6.36,5.87-6.36,2.19,0,4.03.98,5,2.82.98-1.84,2.79-2.82,5-2.82,3.34,0,5.87,2.01,5.87,6.36v8.22h-2.73v-8.22c0-2.65-1.41-3.82-3.39-3.82s-3.36,1.24-3.36,3.82v8.22h-2.73v-8.22c0-2.59-1.47-3.82-3.39-3.82s-3.39,1.18-3.39,3.82v8.22h-2.73v-8.22Z"/>
    <path class="cls-2" d="M55.14,52.92c0-4.46,3.16-7.59,7.68-7.59s7.56,3.05,7.56,7.59v6.99h-2.5v-3.11c-.95,2.3-3.05,3.48-5.52,3.48-3.71,0-7.22-2.67-7.22-7.36ZM67.68,52.8c0-2.88-1.96-4.95-4.89-4.95s-4.89,2.07-4.89,4.95,1.96,4.95,4.89,4.95,4.89-2.07,4.89-4.95Z"/>
    <path class="cls-2" d="M73.2,51.68c0-4.34,2.53-6.36,5.87-6.36,2.19,0,4.03.98,5,2.82.98-1.84,2.79-2.82,5-2.82,3.34,0,5.87,2.01,5.87,6.36v8.22h-2.73v-8.22c0-2.65-1.41-3.82-3.39-3.82s-3.36,1.24-3.36,3.82v8.22h-2.73v-8.22c0-2.59-1.47-3.82-3.39-3.82s-3.39,1.18-3.39,3.82v8.22h-2.73v-8.22Z"/>
  </g>
</svg>