<?xml version="1.0" encoding="UTF-8"?>
<svg id="Layer_1" data-name="Layer 1" xmlns="http://www.w3.org/2000/svg" viewBox="0 0 500.51 449.71">
  <defs>
    <style>
      .cls-1 {
        fill: #0d8844;
      }

      .cls-2, .cls-3 {
        fill: #0e4724;
      }

      .cls-4 {
        letter-spacing: -.12em;
      }

      .cls-5 {
        letter-spacing: -.02em;
      }

      .cls-6 {
        letter-spacing: -.04em;
      }

      .cls-3 {
        font-family: AllRoundGothic-Medium, 'All Round Gothic';
        font-size: 47.84px;
        font-weight: 500;
      }
    </style>
  </defs>
  <g>
    <g id="_Radial_Repeat_" data-name="&amp;lt;Radial Repeat&amp;gt;">
      <circle class="cls-1" cx="127.67" cy="28.84" r="28.84"/>
    </g>
    <g id="_Radial_Repeat_-2" data-name="&amp;lt;Radial Repeat&amp;gt;">
      <circle class="cls-1" cx="218.69" cy="46.28" r="28.84"/>
    </g>
    <g id="_Radial_Repeat_-3" data-name="&amp;lt;Radial Repeat&amp;gt;">
      <circle class="cls-1" cx="296.1" cy="97.22" r="28.84"/>
    </g>
    <g id="_Radial_Repeat_-4" data-name="&amp;lt;Radial Repeat&amp;gt;">
      <circle class="cls-1" cx="348.12" cy="173.91" r="28.84"/>
    </g>
    <g id="_Radial_Repeat_-5" data-name="&amp;lt;Radial Repeat&amp;gt;">
      <circle class="cls-1" cx="366.84" cy="264.67" r="28.84"/>
    </g>
    <g id="_Radial_Repeat_-6" data-name="&amp;lt;Radial Repeat&amp;gt;">
      <circle class="cls-1" cx="130.25" cy="103.54" r="24.99"/>
    </g>
    <g id="_Radial_Repeat_-7" data-name="&amp;lt;Radial Repeat&amp;gt;">
      <circle class="cls-1" cx="192.48" cy="116.29" r="24.99"/>
    </g>
    <g id="_Radial_Repeat_-8" data-name="&amp;lt;Radial Repeat&amp;gt;">
      <circle class="cls-1" cx="245.1" cy="151.87" r="24.99"/>
    </g>
    <g id="_Radial_Repeat_-9" data-name="&amp;lt;Radial Repeat&amp;gt;">
      <circle class="cls-1" cx="280.09" cy="204.88" r="24.99"/>
    </g>
    <g id="_Radial_Repeat_-10" data-name="&amp;lt;Radial Repeat&amp;gt;">
      <circle class="cls-1" cx="292.14" cy="267.26" r="24.99"/>
    </g>
    <g id="_Radial_Repeat_-11" data-name="&amp;lt;Radial Repeat&amp;gt;">
      <circle class="cls-1" cx="129.41" cy="171.67" r="14.53"/>
    </g>
    <g id="_Radial_Repeat_-12" data-name="&amp;lt;Radial Repeat&amp;gt;">
      <circle class="cls-1" cx="165.64" cy="178.9" r="14.53"/>
    </g>
    <g id="_Radial_Repeat_-13" data-name="&amp;lt;Radial Repeat&amp;gt;">
      <circle class="cls-1" cx="196.34" cy="199.45" r="14.53"/>
    </g>
    <g id="_Radial_Repeat_-14" data-name="&amp;lt;Radial Repeat&amp;gt;">
      <circle class="cls-1" cx="216.83" cy="230.18" r="14.53"/>
    </g>
    <g id="_Radial_Repeat_-15" data-name="&amp;lt;Radial Repeat&amp;gt;">
      <circle class="cls-1" cx="224.01" cy="266.42" r="14.53"/>
    </g>
    <g id="_Radial_Repeat_-16" data-name="&amp;lt;Radial Repeat&amp;gt;">
      <circle class="cls-1" cx="129.38" cy="213.9" r="8.05"/>
    </g>
    <g id="_Radial_Repeat_-17" data-name="&amp;lt;Radial Repeat&amp;gt;">
      <circle class="cls-1" cx="149.44" cy="217.9" r="8.05"/>
    </g>
    <g id="_Radial_Repeat_-18" data-name="&amp;lt;Radial Repeat&amp;gt;">
      <circle class="cls-1" cx="166.45" cy="229.28" r="8.05"/>
    </g>
    <g id="_Radial_Repeat_-19" data-name="&amp;lt;Radial Repeat&amp;gt;">
      <circle class="cls-1" cx="177.81" cy="246.31" r="8.05"/>
    </g>
    <g id="_Radial_Repeat_-20" data-name="&amp;lt;Radial Repeat&amp;gt;">
      <circle class="cls-1" cx="181.78" cy="266.38" r="8.05"/>
    </g>
  </g>
  <g>
    <path class="cls-2" d="M0,376.45v-72.61h14.31v26.36h40.97v13.11H14.31v33.14c0,11.75,6.18,16.87,15.52,16.87s15.67-4.97,15.67-16.87v-1.66h14.16v1.66c0,20.19-12.05,30.13-29.83,30.13S0,396.64,0,376.45Z"/>
    <path class="cls-2" d="M68.56,368.02c0-23.35,16.57-39.77,40.22-39.77s39.62,15.97,39.62,39.77v36.61h-13.11v-16.27c-4.97,12.05-15.97,18.23-28.92,18.23-19.43,0-37.81-14.01-37.81-38.57ZM134.23,367.41c0-15.06-10.24-25.91-25.61-25.91s-25.61,10.85-25.61,25.91,10.24,25.91,25.61,25.91,25.61-10.85,25.61-25.91Z"/>
    <path class="cls-2" d="M163.17,361.54c0-22.75,13.26-33.29,30.73-33.29,11.45,0,21.09,5.12,26.21,14.76,5.12-9.64,14.62-14.76,26.21-14.76,17.48,0,30.73,10.55,30.73,33.29v43.08h-14.31v-43.08c0-13.86-7.38-20.03-17.78-20.03s-17.63,6.48-17.63,20.03v43.08h-14.31v-43.08c0-13.56-7.68-20.03-17.78-20.03s-17.78,6.18-17.78,20.03v43.08h-14.31v-43.08Z"/>
    <path class="cls-2" d="M288.83,368.02c0-23.35,16.57-39.77,40.22-39.77s39.62,15.97,39.62,39.77v36.61h-13.11v-16.27c-4.97,12.05-15.97,18.23-28.92,18.23-19.43,0-37.81-14.01-37.81-38.57ZM354.51,367.41c0-15.06-10.24-25.91-25.61-25.91s-25.61,10.85-25.61,25.91,10.24,25.91,25.61,25.91,25.61-10.85,25.61-25.91Z"/>
    <path class="cls-2" d="M383.45,361.54c0-22.75,13.26-33.29,30.73-33.29,11.45,0,21.09,5.12,26.21,14.76,5.12-9.64,14.61-14.76,26.21-14.76,17.48,0,30.73,10.55,30.73,33.29v43.08h-14.31v-43.08c0-13.86-7.38-20.03-17.78-20.03s-17.63,6.48-17.63,20.03v43.08h-14.31v-43.08c0-13.56-7.68-20.03-17.77-20.03s-17.78,6.18-17.78,20.03v43.08h-14.31v-43.08Z"/>
  </g>
  <g>
    <text class="cls-3" transform="translate(3.96 449.71)"><tspan x="0" y="0">HEA</tspan><tspan class="cls-4" x="94.2" y="0">L</tspan><tspan x="115.4" y="0">THCARE</tspan></text>
    <text class="cls-3" transform="translate(322.39 449.7)"><tspan class="cls-6" x="0" y="0">SY</tspan><tspan class="cls-5" x="53.34" y="0">S</tspan><tspan x="78.7" y="0">TEM</tspan></text>
  </g>
</svg>