<?xml version="1.0" encoding="UTF-8"?>
<svg id="Layer_1" data-name="Layer 1" xmlns="http://www.w3.org/2000/svg" viewBox="0 0 492.99 93.57">
  <defs>
    <style>
      .cls-1 {
        fill: #0e4724;
      }
    </style>
  </defs>
  <path class="cls-1" d="M26.08,22.02H0V6.1h69.28v15.92h-26.08v71.55h-17.12V22.02Z"/>
  <path class="cls-1" d="M76.91,42.35c0-23.41,13.37-37.98,38.12-37.98s38.38,14.58,38.38,37.98v51.22h-17.12v-26.21h-42.67v26.21h-16.72v-51.22ZM136.29,51.84v-9.49c0-14.04-6.95-22.07-21.4-22.07s-21.27,8.02-21.27,22.07v9.49h42.67Z"/>
  <path class="cls-1" d="M167.32,37.27c0-22.47,13.24-32.9,30.49-32.9,11.1,0,19.8,4.68,24.88,13.37,5.08-8.69,13.78-13.37,24.88-13.37,17.25,0,30.49,10.43,30.49,32.9v56.31h-17.12v-56.31c0-12.04-6.42-16.98-14.84-16.98s-14.85,5.08-14.85,16.98v56.31h-17.12v-56.31c0-11.9-6.42-16.98-14.84-16.98s-14.85,4.95-14.85,16.98v56.31h-17.12v-56.31Z"/>
  <path class="cls-1" d="M291.84,42.35c0-23.41,13.37-37.98,38.12-37.98s38.38,14.58,38.38,37.98v51.22h-17.12v-26.21h-42.67v26.21h-16.72v-51.22ZM351.22,51.84v-9.49c0-14.04-6.95-22.07-21.4-22.07s-21.27,8.02-21.27,22.07v9.49h42.67Z"/>
  <path class="cls-1" d="M382.26,37.27c0-22.47,13.24-32.9,30.49-32.9,11.1,0,19.8,4.68,24.88,13.37,5.08-8.69,13.78-13.37,24.88-13.37,17.25,0,30.49,10.43,30.49,32.9v56.31h-17.12v-56.31c0-12.04-6.42-16.98-14.84-16.98s-14.85,5.08-14.85,16.98v56.31h-17.12v-56.31c0-11.9-6.42-16.98-14.84-16.98s-14.85,4.95-14.85,16.98v56.31h-17.12v-56.31Z"/>
</svg>