<?xml version="1.0" encoding="UTF-8"?>
<svg id="Layer_1" data-name="Layer 1" xmlns="http://www.w3.org/2000/svg" viewBox="0 0 497.33 100.78">
  <defs>
    <style>
      .cls-1 {
        fill: #0e4724;
      }
    </style>
  </defs>
  <path class="cls-1" d="M0,72.61V0h14.31v26.36h40.97v13.11H14.31v33.14c0,11.75,6.18,16.87,15.52,16.87s15.67-4.97,15.67-16.87v-1.66h14.16v1.66c0,20.19-12.05,30.13-29.83,30.13S0,92.8,0,72.61Z"/>
  <path class="cls-1" d="M68.56,64.17c0-23.35,16.57-39.77,40.22-39.77s39.62,15.97,39.62,39.77v36.61h-13.11v-16.27c-4.97,12.05-15.97,18.23-28.92,18.23-19.43,0-37.81-14.01-37.81-38.57ZM134.23,63.57c0-15.06-10.24-25.91-25.61-25.91s-25.61,10.85-25.61,25.91,10.24,25.91,25.61,25.91,25.61-10.85,25.61-25.91Z"/>
  <path class="cls-1" d="M163.17,57.69c0-22.75,13.26-33.29,30.73-33.29,11.45,0,21.09,5.12,26.21,14.76,5.12-9.64,14.62-14.76,26.21-14.76,17.48,0,30.73,10.55,30.73,33.29v43.08h-14.31v-43.08c0-13.86-7.38-20.03-17.78-20.03s-17.63,6.48-17.63,20.03v43.08h-14.31v-43.08c0-13.56-7.68-20.03-17.78-20.03s-17.78,6.18-17.78,20.03v43.08h-14.31v-43.08Z"/>
  <path class="cls-1" d="M288.83,64.17c0-23.35,16.57-39.77,40.22-39.77s39.62,15.97,39.62,39.77v36.61h-13.11v-16.27c-4.97,12.05-15.97,18.23-28.92,18.23-19.43,0-37.81-14.01-37.81-38.57ZM354.51,63.57c0-15.06-10.24-25.91-25.61-25.91s-25.61,10.85-25.61,25.91,10.24,25.91,25.61,25.91,25.61-10.85,25.61-25.91Z"/>
  <path class="cls-1" d="M383.45,57.69c0-22.75,13.26-33.29,30.73-33.29,11.45,0,21.09,5.12,26.21,14.76,5.12-9.64,14.61-14.76,26.21-14.76,17.48,0,30.73,10.55,30.73,33.29v43.08h-14.31v-43.08c0-13.86-7.38-20.03-17.78-20.03s-17.63,6.48-17.63,20.03v43.08h-14.31v-43.08c0-13.56-7.68-20.03-17.77-20.03s-17.78,6.18-17.78,20.03v43.08h-14.31v-43.08Z"/>
</svg>