<?xml version="1.0" encoding="UTF-8"?>
<svg id="Layer_1" data-name="Layer 1" xmlns="http://www.w3.org/2000/svg" viewBox="0 0 718.24 200.52">
  <defs>
    <style>
      .cls-1 {
        fill: #0d8844;
      }

      .cls-2 {
        font-family: AllRoundGothic-Medium, 'All Round Gothic';
        font-size: 53.28px;
        font-weight: 500;
      }

      .cls-2, .cls-3 {
        fill: #0e4724;
      }
    </style>
  </defs>
  <g>
    <g>
      <path class="cls-3" d="M251.32,62.84h-26.08v-15.92h69.28v15.92h-26.08v71.55h-17.12V62.84Z"/>
      <path class="cls-3" d="M302.15,83.17c0-23.41,13.37-37.98,38.12-37.98s38.38,14.58,38.38,37.98v51.22h-17.12v-26.21h-42.67v26.21h-16.72v-51.22ZM361.53,92.66v-9.49c0-14.04-6.95-22.07-21.4-22.07s-21.27,8.02-21.27,22.07v9.49h42.67Z"/>
      <path class="cls-3" d="M392.56,78.08c0-22.47,13.24-32.9,30.49-32.9,11.1,0,19.8,4.68,24.88,13.37,5.08-8.69,13.78-13.37,24.88-13.37,17.25,0,30.49,10.43,30.49,32.9v56.31h-17.12v-56.31c0-12.04-6.42-16.98-14.84-16.98s-14.85,5.08-14.85,16.98v56.31h-17.12v-56.31c0-11.9-6.42-16.98-14.84-16.98s-14.85,4.95-14.85,16.98v56.31h-17.12v-56.31Z"/>
      <path class="cls-3" d="M517.08,83.17c0-23.41,13.37-37.98,38.12-37.98s38.38,14.58,38.38,37.98v51.22h-17.12v-26.21h-42.67v26.21h-16.72v-51.22ZM576.47,92.66v-9.49c0-14.04-6.95-22.07-21.4-22.07s-21.27,8.02-21.27,22.07v9.49h42.67Z"/>
      <path class="cls-3" d="M607.5,78.08c0-22.47,13.24-32.9,30.49-32.9,11.1,0,19.8,4.68,24.88,13.37,5.08-8.69,13.78-13.37,24.88-13.37,17.25,0,30.49,10.43,30.49,32.9v56.31h-17.12v-56.31c0-12.04-6.42-16.98-14.84-16.98s-14.85,5.08-14.85,16.98v56.31h-17.12v-56.31c0-11.9-6.42-16.98-14.84-16.98s-14.85,4.95-14.85,16.98v56.31h-17.12v-56.31Z"/>
    </g>
    <text class="cls-2" transform="translate(240.31 183.02)"><tspan x="0" y="0">healthcare system</tspan></text>
  </g>
  <g>
    <g id="_Radial_Repeat_" data-name="&amp;lt;Radial Repeat&amp;gt;">
      <circle class="cls-1" cx="19.7" cy="19.7" r="19.7"/>
    </g>
    <g id="_Radial_Repeat_-2" data-name="&amp;lt;Radial Repeat&amp;gt;">
      <circle class="cls-1" cx="81.88" cy="31.62" r="19.7"/>
    </g>
    <g id="_Radial_Repeat_-3" data-name="&amp;lt;Radial Repeat&amp;gt;">
      <circle class="cls-1" cx="134.77" cy="66.42" r="19.7"/>
    </g>
    <g id="_Radial_Repeat_-4" data-name="&amp;lt;Radial Repeat&amp;gt;">
      <circle class="cls-1" cx="170.31" cy="118.81" r="19.7"/>
    </g>
    <g id="_Radial_Repeat_-5" data-name="&amp;lt;Radial Repeat&amp;gt;">
      <circle class="cls-1" cx="183.1" cy="180.82" r="19.7"/>
    </g>
    <g id="_Radial_Repeat_-6" data-name="&amp;lt;Radial Repeat&amp;gt;">
      <circle class="cls-1" cx="21.47" cy="70.74" r="17.07"/>
    </g>
    <g id="_Radial_Repeat_-7" data-name="&amp;lt;Radial Repeat&amp;gt;">
      <circle class="cls-1" cx="63.98" cy="79.44" r="17.07"/>
    </g>
    <g id="_Radial_Repeat_-8" data-name="&amp;lt;Radial Repeat&amp;gt;">
      <circle class="cls-1" cx="99.93" cy="103.75" r="17.07"/>
    </g>
    <g id="_Radial_Repeat_-9" data-name="&amp;lt;Radial Repeat&amp;gt;">
      <circle class="cls-1" cx="123.83" cy="139.97" r="17.07"/>
    </g>
    <g id="_Radial_Repeat_-10" data-name="&amp;lt;Radial Repeat&amp;gt;">
      <circle class="cls-1" cx="132.06" cy="182.58" r="17.07"/>
    </g>
    <g id="_Radial_Repeat_-11" data-name="&amp;lt;Radial Repeat&amp;gt;">
      <circle class="cls-1" cx="20.89" cy="117.28" r="9.93"/>
    </g>
    <g id="_Radial_Repeat_-12" data-name="&amp;lt;Radial Repeat&amp;gt;">
      <circle class="cls-1" cx="45.64" cy="122.22" r="9.93"/>
    </g>
    <g id="_Radial_Repeat_-13" data-name="&amp;lt;Radial Repeat&amp;gt;">
      <circle class="cls-1" cx="66.61" cy="136.26" r="9.93"/>
    </g>
    <g id="_Radial_Repeat_-14" data-name="&amp;lt;Radial Repeat&amp;gt;">
      <circle class="cls-1" cx="80.62" cy="157.25" r="9.93"/>
    </g>
    <g id="_Radial_Repeat_-15" data-name="&amp;lt;Radial Repeat&amp;gt;">
      <circle class="cls-1" cx="85.52" cy="182.01" r="9.93"/>
    </g>
    <g id="_Radial_Repeat_-16" data-name="&amp;lt;Radial Repeat&amp;gt;">
      <circle class="cls-1" cx="20.87" cy="146.13" r="5.5"/>
    </g>
    <g id="_Radial_Repeat_-17" data-name="&amp;lt;Radial Repeat&amp;gt;">
      <circle class="cls-1" cx="34.58" cy="148.86" r="5.5"/>
    </g>
    <g id="_Radial_Repeat_-18" data-name="&amp;lt;Radial Repeat&amp;gt;">
      <circle class="cls-1" cx="46.2" cy="156.64" r="5.5"/>
    </g>
    <g id="_Radial_Repeat_-19" data-name="&amp;lt;Radial Repeat&amp;gt;">
      <circle class="cls-1" cx="53.95" cy="168.27" r="5.5"/>
    </g>
    <g id="_Radial_Repeat_-20" data-name="&amp;lt;Radial Repeat&amp;gt;">
      <circle class="cls-1" cx="56.67" cy="181.98" r="5.5"/>
    </g>
  </g>
</svg>