<?xml version="1.0" encoding="UTF-8"?>
<svg id="Layer_1" data-name="Layer 1" xmlns="http://www.w3.org/2000/svg" viewBox="0 0 292.75 231.94">
  <defs>
    <style>
      .cls-1 {
        fill: #0d8844;
      }

      .cls-2 {
        fill: #0e4724;
      }
    </style>
  </defs>
  <g>
    <path class="cls-2" d="M26.08,160.39H0v-15.92h69.28v15.92h-26.08v71.55h-17.12v-71.55Z"/>
    <path class="cls-2" d="M76.91,180.71c0-23.41,13.37-37.98,38.12-37.98s38.38,14.58,38.38,37.98v51.22h-17.12v-26.21h-42.67v26.21h-16.72v-51.22ZM136.29,190.21v-9.49c0-14.04-6.95-22.07-21.4-22.07s-21.27,8.02-21.27,22.07v9.49h42.67Z"/>
  </g>
  <g>
    <g id="_Radial_Repeat_" data-name="&amp;lt;Radial Repeat&amp;gt;">
      <circle class="cls-1" cx="136.78" cy="16.78" r="16.78"/>
    </g>
    <g id="_Radial_Repeat_-2" data-name="&amp;lt;Radial Repeat&amp;gt;">
      <circle class="cls-1" cx="189.75" cy="26.93" r="16.78"/>
    </g>
    <g id="_Radial_Repeat_-3" data-name="&amp;lt;Radial Repeat&amp;gt;">
      <circle class="cls-1" cx="234.8" cy="56.58" r="16.78"/>
    </g>
    <g id="_Radial_Repeat_-4" data-name="&amp;lt;Radial Repeat&amp;gt;">
      <circle class="cls-1" cx="265.07" cy="101.21" r="16.78"/>
    </g>
    <g id="_Radial_Repeat_-5" data-name="&amp;lt;Radial Repeat&amp;gt;">
      <circle class="cls-1" cx="275.96" cy="154.02" r="16.78"/>
    </g>
    <g id="_Radial_Repeat_-6" data-name="&amp;lt;Radial Repeat&amp;gt;">
      <circle class="cls-1" cx="138.29" cy="60.26" r="14.54"/>
    </g>
    <g id="_Radial_Repeat_-7" data-name="&amp;lt;Radial Repeat&amp;gt;">
      <circle class="cls-1" cx="174.5" cy="67.67" r="14.54"/>
    </g>
    <g id="_Radial_Repeat_-8" data-name="&amp;lt;Radial Repeat&amp;gt;">
      <circle class="cls-1" cx="205.12" cy="88.38" r="14.54"/>
    </g>
    <g id="_Radial_Repeat_-9" data-name="&amp;lt;Radial Repeat&amp;gt;">
      <circle class="cls-1" cx="225.48" cy="119.23" r="14.54"/>
    </g>
    <g id="_Radial_Repeat_-10" data-name="&amp;lt;Radial Repeat&amp;gt;">
      <circle class="cls-1" cx="232.49" cy="155.53" r="14.54"/>
    </g>
    <g id="_Radial_Repeat_-11" data-name="&amp;lt;Radial Repeat&amp;gt;">
      <circle class="cls-1" cx="137.8" cy="99.9" r="8.46"/>
    </g>
    <g id="_Radial_Repeat_-12" data-name="&amp;lt;Radial Repeat&amp;gt;">
      <circle class="cls-1" cx="158.88" cy="104.11" r="8.46"/>
    </g>
    <g id="_Radial_Repeat_-13" data-name="&amp;lt;Radial Repeat&amp;gt;">
      <circle class="cls-1" cx="176.74" cy="116.07" r="8.46"/>
    </g>
    <g id="_Radial_Repeat_-14" data-name="&amp;lt;Radial Repeat&amp;gt;">
      <circle class="cls-1" cx="188.67" cy="133.95" r="8.46"/>
    </g>
    <g id="_Radial_Repeat_-15" data-name="&amp;lt;Radial Repeat&amp;gt;">
      <circle class="cls-1" cx="192.85" cy="155.04" r="8.46"/>
    </g>
    <g id="_Radial_Repeat_-16" data-name="&amp;lt;Radial Repeat&amp;gt;">
      <circle class="cls-1" cx="137.78" cy="124.47" r="4.68"/>
    </g>
    <g id="_Radial_Repeat_-17" data-name="&amp;lt;Radial Repeat&amp;gt;">
      <circle class="cls-1" cx="149.45" cy="126.81" r="4.68"/>
    </g>
    <g id="_Radial_Repeat_-18" data-name="&amp;lt;Radial Repeat&amp;gt;">
      <circle class="cls-1" cx="159.35" cy="133.43" r="4.68"/>
    </g>
    <g id="_Radial_Repeat_-19" data-name="&amp;lt;Radial Repeat&amp;gt;">
      <circle class="cls-1" cx="165.96" cy="143.33" r="4.68"/>
    </g>
    <g id="_Radial_Repeat_-20" data-name="&amp;lt;Radial Repeat&amp;gt;">
      <circle class="cls-1" cx="168.27" cy="155.02" r="4.68"/>
    </g>
  </g>
</svg>