<?xml version="1.0" encoding="UTF-8"?>
<svg id="Layer_1" data-name="Layer 1" xmlns="http://www.w3.org/2000/svg" viewBox="0 0 685.03 244.31">
  <defs>
    <style>
      .cls-1 {
        fill: #0d8844;
      }

      .cls-2, .cls-3 {
        fill: #0e4724;
      }

      .cls-3 {
        font-family: AllRoundGothic-Medium, 'All Round Gothic';
        font-size: 55.78px;
        font-weight: 500;
      }

      .cls-4 {
        letter-spacing: -.12em;
      }

      .cls-5 {
        letter-spacing: -.02em;
      }

      .cls-6 {
        letter-spacing: -.04em;
      }
    </style>
  </defs>
  <g>
    <g id="_Radial_Repeat_" data-name="&amp;lt;Radial Repeat&amp;gt;">
      <circle class="cls-1" cx="564.79" cy="12.94" r="12.94"/>
    </g>
    <g id="_Radial_Repeat_-2" data-name="&amp;lt;Radial Repeat&amp;gt;">
      <circle class="cls-1" cx="605.63" cy="20.76" r="12.94"/>
    </g>
    <g id="_Radial_Repeat_-3" data-name="&amp;lt;Radial Repeat&amp;gt;">
      <circle class="cls-1" cx="640.35" cy="43.61" r="12.94"/>
    </g>
    <g id="_Radial_Repeat_-4" data-name="&amp;lt;Radial Repeat&amp;gt;">
      <circle class="cls-1" cx="663.69" cy="78.02" r="12.94"/>
    </g>
    <g id="_Radial_Repeat_-5" data-name="&amp;lt;Radial Repeat&amp;gt;">
      <circle class="cls-1" cx="672.09" cy="118.73" r="12.94"/>
    </g>
    <g id="_Radial_Repeat_-6" data-name="&amp;lt;Radial Repeat&amp;gt;">
      <circle class="cls-1" cx="565.95" cy="46.45" r="11.21"/>
    </g>
    <g id="_Radial_Repeat_-7" data-name="&amp;lt;Radial Repeat&amp;gt;">
      <circle class="cls-1" cx="593.87" cy="52.17" r="11.21"/>
    </g>
    <g id="_Radial_Repeat_-8" data-name="&amp;lt;Radial Repeat&amp;gt;">
      <circle class="cls-1" cx="617.48" cy="68.13" r="11.21"/>
    </g>
    <g id="_Radial_Repeat_-9" data-name="&amp;lt;Radial Repeat&amp;gt;">
      <circle class="cls-1" cx="633.17" cy="91.91" r="11.21"/>
    </g>
    <g id="_Radial_Repeat_-10" data-name="&amp;lt;Radial Repeat&amp;gt;">
      <circle class="cls-1" cx="638.58" cy="119.89" r="11.21"/>
    </g>
    <g id="_Radial_Repeat_-11" data-name="&amp;lt;Radial Repeat&amp;gt;">
      <circle class="cls-1" cx="565.58" cy="77.01" r="6.52"/>
    </g>
    <g id="_Radial_Repeat_-12" data-name="&amp;lt;Radial Repeat&amp;gt;">
      <circle class="cls-1" cx="581.83" cy="80.26" r="6.52"/>
    </g>
    <g id="_Radial_Repeat_-13" data-name="&amp;lt;Radial Repeat&amp;gt;">
      <circle class="cls-1" cx="595.6" cy="89.47" r="6.52"/>
    </g>
    <g id="_Radial_Repeat_-14" data-name="&amp;lt;Radial Repeat&amp;gt;">
      <circle class="cls-1" cx="604.79" cy="103.26" r="6.52"/>
    </g>
    <g id="_Radial_Repeat_-15" data-name="&amp;lt;Radial Repeat&amp;gt;">
      <circle class="cls-1" cx="608.01" cy="119.52" r="6.52"/>
    </g>
    <g id="_Radial_Repeat_-16" data-name="&amp;lt;Radial Repeat&amp;gt;">
      <circle class="cls-1" cx="565.56" cy="95.96" r="3.61"/>
    </g>
    <g id="_Radial_Repeat_-17" data-name="&amp;lt;Radial Repeat&amp;gt;">
      <circle class="cls-1" cx="574.56" cy="97.75" r="3.61"/>
    </g>
    <g id="_Radial_Repeat_-18" data-name="&amp;lt;Radial Repeat&amp;gt;">
      <circle class="cls-1" cx="582.19" cy="102.86" r="3.61"/>
    </g>
    <g id="_Radial_Repeat_-19" data-name="&amp;lt;Radial Repeat&amp;gt;">
      <circle class="cls-1" cx="587.29" cy="110.49" r="3.61"/>
    </g>
    <g id="_Radial_Repeat_-20" data-name="&amp;lt;Radial Repeat&amp;gt;">
      <circle class="cls-1" cx="589.07" cy="119.5" r="3.61"/>
    </g>
  </g>
  <g>
    <path class="cls-2" d="M0,161.23v-84.65h16.69v30.73h47.77v15.28H16.69v38.64c0,13.7,7.2,19.67,18.09,19.67s18.27-5.8,18.27-19.67v-1.93h16.51v1.93c0,23.54-14.05,35.13-34.78,35.13S0,184.77,0,161.23Z"/>
    <path class="cls-2" d="M79.93,151.4c0-27.22,19.32-46.37,46.89-46.37s46.19,18.62,46.19,46.37v42.68h-15.28v-18.97c-5.8,14.05-18.62,21.25-33.72,21.25-22.66,0-44.08-16.33-44.08-44.96ZM156.5,150.7c0-17.56-11.94-30.21-29.86-30.21s-29.86,12.65-29.86,30.21,11.94,30.21,29.86,30.21,29.86-12.65,29.86-30.21Z"/>
    <path class="cls-2" d="M190.24,143.85c0-26.52,15.46-38.81,35.83-38.81,13.35,0,24.59,5.97,30.56,17.21,5.97-11.24,17.04-17.21,30.56-17.21,20.37,0,35.83,12.29,35.83,38.81v50.23h-16.69v-50.23c0-16.16-8.61-23.36-20.73-23.36s-20.55,7.55-20.55,23.36v50.23h-16.68v-50.23c0-15.81-8.96-23.36-20.73-23.36s-20.73,7.2-20.73,23.36v50.23h-16.69v-50.23Z"/>
    <path class="cls-2" d="M336.74,151.4c0-27.22,19.32-46.37,46.89-46.37s46.19,18.62,46.19,46.37v42.68h-15.28v-18.97c-5.8,14.05-18.62,21.25-33.72,21.25-22.66,0-44.08-16.33-44.08-44.96ZM413.31,150.7c0-17.56-11.94-30.21-29.86-30.21s-29.86,12.65-29.86,30.21,11.94,30.21,29.86,30.21,29.86-12.65,29.86-30.21Z"/>
    <path class="cls-2" d="M447.05,143.85c0-26.52,15.46-38.81,35.83-38.81,13.35,0,24.59,5.97,30.56,17.21,5.97-11.24,17.04-17.21,30.56-17.21,20.37,0,35.83,12.29,35.83,38.81v50.23h-16.69v-50.23c0-16.16-8.61-23.36-20.73-23.36s-20.55,7.55-20.55,23.36v50.23h-16.69v-50.23c0-15.81-8.96-23.36-20.72-23.36s-20.73,7.2-20.73,23.36v50.23h-16.69v-50.23Z"/>
  </g>
  <text class="cls-3" transform="translate(4.62 244.31)"><tspan x="0" y="0">HEA</tspan><tspan class="cls-4" x="109.83" y="0">L</tspan><tspan x="134.54" y="0">THCARE</tspan></text>
  <text class="cls-3" transform="translate(375.86 244.3)"><tspan class="cls-6" x="0" y="0">SY</tspan><tspan class="cls-5" x="62.19" y="0">S</tspan><tspan x="91.76" y="0">TEM</tspan></text>
</svg>