<?xml version="1.0" encoding="UTF-8"?>
<svg id="Layer_1" data-name="Layer 1" xmlns="http://www.w3.org/2000/svg" viewBox="0 0 661.64 271.4">
  <defs>
    <style>
      .cls-1 {
        fill: #0d8844;
      }

      .cls-2 {
        font-family: AllRoundGothic-Medium, 'All Round Gothic';
        font-size: 60.58px;
        font-weight: 500;
      }

      .cls-2, .cls-3 {
        fill: #0e4724;
      }
    </style>
  </defs>
  <g>
    <g>
      <path class="cls-3" d="M29.66,121.17H0v-18.1h78.78v18.1h-29.66v81.36h-19.47v-81.36Z"/>
      <path class="cls-3" d="M87.45,144.29c0-26.62,15.21-43.19,43.34-43.19s43.65,16.58,43.65,43.19v58.25h-19.47v-29.81h-48.52v29.81h-19.01v-58.25ZM154.98,155.08v-10.8c0-15.97-7.91-25.09-24.33-25.09s-24.18,9.12-24.18,25.09v10.8h48.52Z"/>
      <path class="cls-3" d="M190.26,138.5c0-25.55,15.05-37.41,34.67-37.41,12.62,0,22.51,5.32,28.29,15.21,5.78-9.89,15.66-15.21,28.29-15.21,19.62,0,34.67,11.86,34.67,37.41v64.03h-19.47v-64.03c0-13.69-7.3-19.31-16.88-19.31s-16.88,5.78-16.88,19.31v64.03h-19.47v-64.03c0-13.54-7.3-19.31-16.88-19.31s-16.88,5.63-16.88,19.31v64.03h-19.47v-64.03Z"/>
      <path class="cls-3" d="M331.85,144.29c0-26.62,15.21-43.19,43.34-43.19s43.65,16.58,43.65,43.19v58.25h-19.47v-29.81h-48.52v29.81h-19.01v-58.25ZM399.38,155.08v-10.8c0-15.97-7.91-25.09-24.33-25.09s-24.18,9.12-24.18,25.09v10.8h48.52Z"/>
      <path class="cls-3" d="M434.66,138.5c0-25.55,15.05-37.41,34.67-37.41,12.62,0,22.51,5.32,28.29,15.21,5.78-9.89,15.66-15.21,28.29-15.21,19.62,0,34.67,11.86,34.67,37.41v64.03h-19.47v-64.03c0-13.69-7.3-19.31-16.88-19.31s-16.88,5.78-16.88,19.31v64.03h-19.47v-64.03c0-13.54-7.3-19.31-16.88-19.31s-16.88,5.63-16.88,19.31v64.03h-19.47v-64.03Z"/>
    </g>
    <text class="cls-2" transform="translate(17.14 257.83)"><tspan x="0" y="0">healthcare system</tspan></text>
  </g>
  <g>
    <g id="_Radial_Repeat_" data-name="&amp;lt;Radial Repeat&amp;gt;">
      <circle class="cls-1" cx="544.43" cy="12.5" r="12.5"/>
    </g>
    <g id="_Radial_Repeat_-2" data-name="&amp;lt;Radial Repeat&amp;gt;">
      <circle class="cls-1" cx="583.89" cy="20.07" r="12.5"/>
    </g>
    <g id="_Radial_Repeat_-3" data-name="&amp;lt;Radial Repeat&amp;gt;">
      <circle class="cls-1" cx="617.46" cy="42.15" r="12.5"/>
    </g>
    <g id="_Radial_Repeat_-4" data-name="&amp;lt;Radial Repeat&amp;gt;">
      <circle class="cls-1" cx="640.01" cy="75.4" r="12.5"/>
    </g>
    <g id="_Radial_Repeat_-5" data-name="&amp;lt;Radial Repeat&amp;gt;">
      <circle class="cls-1" cx="648.13" cy="114.76" r="12.5"/>
    </g>
    <g id="_Radial_Repeat_-6" data-name="&amp;lt;Radial Repeat&amp;gt;">
      <circle class="cls-1" cx="545.55" cy="44.89" r="10.83"/>
    </g>
    <g id="_Radial_Repeat_-7" data-name="&amp;lt;Radial Repeat&amp;gt;">
      <circle class="cls-1" cx="572.53" cy="50.42" r="10.83"/>
    </g>
    <g id="_Radial_Repeat_-8" data-name="&amp;lt;Radial Repeat&amp;gt;">
      <circle class="cls-1" cx="595.34" cy="65.85" r="10.83"/>
    </g>
    <g id="_Radial_Repeat_-9" data-name="&amp;lt;Radial Repeat&amp;gt;">
      <circle class="cls-1" cx="610.52" cy="88.83" r="10.83"/>
    </g>
    <g id="_Radial_Repeat_-10" data-name="&amp;lt;Radial Repeat&amp;gt;">
      <circle class="cls-1" cx="615.74" cy="115.88" r="10.83"/>
    </g>
    <g id="_Radial_Repeat_-11" data-name="&amp;lt;Radial Repeat&amp;gt;">
      <circle class="cls-1" cx="545.19" cy="74.43" r="6.3"/>
    </g>
    <g id="_Radial_Repeat_-12" data-name="&amp;lt;Radial Repeat&amp;gt;">
      <circle class="cls-1" cx="560.89" cy="77.57" r="6.3"/>
    </g>
    <g id="_Radial_Repeat_-13" data-name="&amp;lt;Radial Repeat&amp;gt;">
      <circle class="cls-1" cx="574.2" cy="86.48" r="6.3"/>
    </g>
    <g id="_Radial_Repeat_-14" data-name="&amp;lt;Radial Repeat&amp;gt;">
      <circle class="cls-1" cx="583.09" cy="99.8" r="6.3"/>
    </g>
    <g id="_Radial_Repeat_-15" data-name="&amp;lt;Radial Repeat&amp;gt;">
      <circle class="cls-1" cx="586.2" cy="115.51" r="6.3"/>
    </g>
    <g id="_Radial_Repeat_-16" data-name="&amp;lt;Radial Repeat&amp;gt;">
      <circle class="cls-1" cx="545.17" cy="92.74" r="3.49"/>
    </g>
    <g id="_Radial_Repeat_-17" data-name="&amp;lt;Radial Repeat&amp;gt;">
      <circle class="cls-1" cx="553.87" cy="94.48" r="3.49"/>
    </g>
    <g id="_Radial_Repeat_-18" data-name="&amp;lt;Radial Repeat&amp;gt;">
      <circle class="cls-1" cx="561.24" cy="99.41" r="3.49"/>
    </g>
    <g id="_Radial_Repeat_-19" data-name="&amp;lt;Radial Repeat&amp;gt;">
      <circle class="cls-1" cx="566.17" cy="106.79" r="3.49"/>
    </g>
    <g id="_Radial_Repeat_-20" data-name="&amp;lt;Radial Repeat&amp;gt;">
      <circle class="cls-1" cx="567.89" cy="115.5" r="3.49"/>
    </g>
  </g>
</svg>