<?xml version="1.0" encoding="UTF-8"?>
<svg id="Layer_1" data-name="Layer 1" xmlns="http://www.w3.org/2000/svg" viewBox="0 0 501.49 480.95">
  <defs>
    <style>
      .cls-1 {
        fill: #0d8844;
      }

      .cls-2 {
        font-family: AllRoundGothic-Medium, 'All Round Gothic';
        font-size: 53.28px;
        font-weight: 500;
      }

      .cls-2, .cls-3 {
        fill: #0e4724;
      }
    </style>
  </defs>
  <g>
    <g>
      <path class="cls-3" d="M27.78,348.83H1.7v-15.92h69.28v15.92h-26.08v71.55h-17.12v-71.55Z"/>
      <path class="cls-3" d="M78.6,369.16c0-23.41,13.37-37.98,38.12-37.98s38.38,14.58,38.38,37.98v51.22h-17.12v-26.21h-42.67v26.21h-16.72v-51.22ZM137.99,378.65v-9.49c0-14.04-6.95-22.07-21.4-22.07s-21.27,8.02-21.27,22.07v9.49h42.67Z"/>
      <path class="cls-3" d="M169.02,364.07c0-22.47,13.24-32.9,30.49-32.9,11.1,0,19.8,4.68,24.88,13.37,5.08-8.69,13.78-13.37,24.88-13.37,17.25,0,30.49,10.43,30.49,32.9v56.31h-17.12v-56.31c0-12.04-6.42-16.98-14.84-16.98s-14.85,5.08-14.85,16.98v56.31h-17.12v-56.31c0-11.9-6.42-16.98-14.84-16.98s-14.85,4.95-14.85,16.98v56.31h-17.12v-56.31Z"/>
      <path class="cls-3" d="M293.54,369.16c0-23.41,13.37-37.98,38.12-37.98s38.38,14.58,38.38,37.98v51.22h-17.12v-26.21h-42.67v26.21h-16.72v-51.22ZM352.92,378.65v-9.49c0-14.04-6.95-22.07-21.4-22.07s-21.27,8.02-21.27,22.07v9.49h42.67Z"/>
      <path class="cls-3" d="M383.95,364.07c0-22.47,13.24-32.9,30.49-32.9,11.1,0,19.8,4.68,24.88,13.37,5.08-8.69,13.78-13.37,24.88-13.37,17.25,0,30.49,10.43,30.49,32.9v56.31h-17.12v-56.31c0-12.04-6.42-16.98-14.84-16.98s-14.85,5.08-14.85,16.98v56.31h-17.12v-56.31c0-11.9-6.42-16.98-14.84-16.98s-14.85,4.95-14.85,16.98v56.31h-17.12v-56.31Z"/>
    </g>
    <text class="cls-2" transform="translate(16.77 469.01)"><tspan x="0" y="0">healthcare system</tspan></text>
  </g>
  <g>
    <g id="_Radial_Repeat_" data-name="&amp;lt;Radial Repeat&amp;gt;">
      <circle class="cls-1" cx="129.67" cy="28.84" r="28.84"/>
    </g>
    <g id="_Radial_Repeat_-2" data-name="&amp;lt;Radial Repeat&amp;gt;">
      <circle class="cls-1" cx="220.68" cy="46.28" r="28.84"/>
    </g>
    <g id="_Radial_Repeat_-3" data-name="&amp;lt;Radial Repeat&amp;gt;">
      <circle class="cls-1" cx="298.1" cy="97.22" r="28.84"/>
    </g>
    <g id="_Radial_Repeat_-4" data-name="&amp;lt;Radial Repeat&amp;gt;">
      <circle class="cls-1" cx="350.12" cy="173.91" r="28.84"/>
    </g>
    <g id="_Radial_Repeat_-5" data-name="&amp;lt;Radial Repeat&amp;gt;">
      <circle class="cls-1" cx="368.84" cy="264.67" r="28.84"/>
    </g>
    <g id="_Radial_Repeat_-6" data-name="&amp;lt;Radial Repeat&amp;gt;">
      <circle class="cls-1" cx="132.25" cy="103.54" r="24.99"/>
    </g>
    <g id="_Radial_Repeat_-7" data-name="&amp;lt;Radial Repeat&amp;gt;">
      <circle class="cls-1" cx="194.48" cy="116.29" r="24.99"/>
    </g>
    <g id="_Radial_Repeat_-8" data-name="&amp;lt;Radial Repeat&amp;gt;">
      <circle class="cls-1" cx="247.1" cy="151.87" r="24.99"/>
    </g>
    <g id="_Radial_Repeat_-9" data-name="&amp;lt;Radial Repeat&amp;gt;">
      <circle class="cls-1" cx="282.09" cy="204.88" r="24.99"/>
    </g>
    <g id="_Radial_Repeat_-10" data-name="&amp;lt;Radial Repeat&amp;gt;">
      <circle class="cls-1" cx="294.13" cy="267.26" r="24.99"/>
    </g>
    <g id="_Radial_Repeat_-11" data-name="&amp;lt;Radial Repeat&amp;gt;">
      <circle class="cls-1" cx="131.41" cy="171.67" r="14.53"/>
    </g>
    <g id="_Radial_Repeat_-12" data-name="&amp;lt;Radial Repeat&amp;gt;">
      <circle class="cls-1" cx="167.63" cy="178.9" r="14.53"/>
    </g>
    <g id="_Radial_Repeat_-13" data-name="&amp;lt;Radial Repeat&amp;gt;">
      <circle class="cls-1" cx="198.33" cy="199.45" r="14.53"/>
    </g>
    <g id="_Radial_Repeat_-14" data-name="&amp;lt;Radial Repeat&amp;gt;">
      <circle class="cls-1" cx="218.83" cy="230.18" r="14.53"/>
    </g>
    <g id="_Radial_Repeat_-15" data-name="&amp;lt;Radial Repeat&amp;gt;">
      <circle class="cls-1" cx="226.01" cy="266.42" r="14.53"/>
    </g>
    <g id="_Radial_Repeat_-16" data-name="&amp;lt;Radial Repeat&amp;gt;">
      <circle class="cls-1" cx="131.38" cy="213.9" r="8.05"/>
    </g>
    <g id="_Radial_Repeat_-17" data-name="&amp;lt;Radial Repeat&amp;gt;">
      <circle class="cls-1" cx="151.44" cy="217.9" r="8.05"/>
    </g>
    <g id="_Radial_Repeat_-18" data-name="&amp;lt;Radial Repeat&amp;gt;">
      <circle class="cls-1" cx="168.45" cy="229.28" r="8.05"/>
    </g>
    <g id="_Radial_Repeat_-19" data-name="&amp;lt;Radial Repeat&amp;gt;">
      <circle class="cls-1" cx="179.8" cy="246.31" r="8.05"/>
    </g>
    <g id="_Radial_Repeat_-20" data-name="&amp;lt;Radial Repeat&amp;gt;">
      <circle class="cls-1" cx="183.78" cy="266.38" r="8.05"/>
    </g>
  </g>
</svg>