<?xml version="1.0" encoding="UTF-8"?>
<svg id="Layer_1" data-name="Layer 1" xmlns="http://www.w3.org/2000/svg" viewBox="0 0 326.16 232.44">
  <defs>
    <style>
      .cls-1 {
        fill: #0d8844;
      }

      .cls-2 {
        fill: #0e4724;
      }
    </style>
  </defs>
  <g>
    <path class="cls-2" d="M26.08,160.89H0v-15.92h69.28v15.92h-26.08v71.55h-17.12v-71.55Z"/>
    <path class="cls-2" d="M76.91,176.13c0-22.47,13.24-32.9,30.49-32.9,11.1,0,19.8,4.68,24.88,13.37,5.08-8.69,13.78-13.37,24.88-13.37,17.25,0,30.49,10.43,30.49,32.9v56.31h-17.12v-56.31c0-12.04-6.42-16.98-14.84-16.98s-14.85,5.08-14.85,16.98v56.31h-17.12v-56.31c0-11.9-6.42-16.98-14.84-16.98s-14.85,4.95-14.85,16.98v56.31h-17.12v-56.31Z"/>
  </g>
  <g>
    <g id="_Radial_Repeat_" data-name="&amp;lt;Radial Repeat&amp;gt;">
      <circle class="cls-1" cx="170.19" cy="16.78" r="16.78"/>
    </g>
    <g id="_Radial_Repeat_-2" data-name="&amp;lt;Radial Repeat&amp;gt;">
      <circle class="cls-1" cx="223.16" cy="26.93" r="16.78"/>
    </g>
    <g id="_Radial_Repeat_-3" data-name="&amp;lt;Radial Repeat&amp;gt;">
      <circle class="cls-1" cx="268.21" cy="56.58" r="16.78"/>
    </g>
    <g id="_Radial_Repeat_-4" data-name="&amp;lt;Radial Repeat&amp;gt;">
      <circle class="cls-1" cx="298.48" cy="101.21" r="16.78"/>
    </g>
    <g id="_Radial_Repeat_-5" data-name="&amp;lt;Radial Repeat&amp;gt;">
      <circle class="cls-1" cx="309.38" cy="154.02" r="16.78"/>
    </g>
    <g id="_Radial_Repeat_-6" data-name="&amp;lt;Radial Repeat&amp;gt;">
      <circle class="cls-1" cx="171.7" cy="60.26" r="14.54"/>
    </g>
    <g id="_Radial_Repeat_-7" data-name="&amp;lt;Radial Repeat&amp;gt;">
      <circle class="cls-1" cx="207.91" cy="67.67" r="14.54"/>
    </g>
    <g id="_Radial_Repeat_-8" data-name="&amp;lt;Radial Repeat&amp;gt;">
      <circle class="cls-1" cx="238.53" cy="88.38" r="14.54"/>
    </g>
    <g id="_Radial_Repeat_-9" data-name="&amp;lt;Radial Repeat&amp;gt;">
      <circle class="cls-1" cx="258.89" cy="119.23" r="14.54"/>
    </g>
    <g id="_Radial_Repeat_-10" data-name="&amp;lt;Radial Repeat&amp;gt;">
      <circle class="cls-1" cx="265.9" cy="155.53" r="14.54"/>
    </g>
    <g id="_Radial_Repeat_-11" data-name="&amp;lt;Radial Repeat&amp;gt;">
      <circle class="cls-1" cx="171.21" cy="99.9" r="8.46"/>
    </g>
    <g id="_Radial_Repeat_-12" data-name="&amp;lt;Radial Repeat&amp;gt;">
      <circle class="cls-1" cx="192.29" cy="104.11" r="8.46"/>
    </g>
    <g id="_Radial_Repeat_-13" data-name="&amp;lt;Radial Repeat&amp;gt;">
      <circle class="cls-1" cx="210.15" cy="116.07" r="8.46"/>
    </g>
    <g id="_Radial_Repeat_-14" data-name="&amp;lt;Radial Repeat&amp;gt;">
      <circle class="cls-1" cx="222.08" cy="133.95" r="8.46"/>
    </g>
    <g id="_Radial_Repeat_-15" data-name="&amp;lt;Radial Repeat&amp;gt;">
      <circle class="cls-1" cx="226.26" cy="155.04" r="8.46"/>
    </g>
    <g id="_Radial_Repeat_-16" data-name="&amp;lt;Radial Repeat&amp;gt;">
      <circle class="cls-1" cx="171.19" cy="124.47" r="4.68"/>
    </g>
    <g id="_Radial_Repeat_-17" data-name="&amp;lt;Radial Repeat&amp;gt;">
      <circle class="cls-1" cx="182.86" cy="126.81" r="4.68"/>
    </g>
    <g id="_Radial_Repeat_-18" data-name="&amp;lt;Radial Repeat&amp;gt;">
      <circle class="cls-1" cx="192.76" cy="133.43" r="4.68"/>
    </g>
    <g id="_Radial_Repeat_-19" data-name="&amp;lt;Radial Repeat&amp;gt;">
      <circle class="cls-1" cx="199.37" cy="143.33" r="4.68"/>
    </g>
    <g id="_Radial_Repeat_-20" data-name="&amp;lt;Radial Repeat&amp;gt;">
      <circle class="cls-1" cx="201.68" cy="155.02" r="4.68"/>
    </g>
  </g>
</svg>