<?xml version="1.0" encoding="UTF-8"?>
<svg xmlns="http://www.w3.org/2000/svg" viewBox="0 0 732.48 200.52" role="img" aria-label="Tamam Healthcare System">
  <defs>
    <style>
      .tam-dot { fill: #3b82f6; }
      .tam-word { fill: #1e3a8a; }
      .tam-sub { fill: #1e3a8a; font-family: 'All Round Gothic', Arial, Helvetica, sans-serif; font-size: 47.84px; font-weight: 600; }
      .tam-ls4 { letter-spacing: -.12em; }
      .tam-ls5 { letter-spacing: -.02em; }
      .tam-ls6 { letter-spacing: -.04em; }
    </style>
  </defs>
  <g class="tam-dot">
    <circle cx="19.7" cy="19.7" r="19.7"/>
    <circle cx="81.88" cy="31.62" r="19.7"/>
    <circle cx="134.77" cy="66.42" r="19.7"/>
    <circle cx="170.31" cy="118.81" r="19.7"/>
    <circle cx="183.1" cy="180.82" r="19.7"/>
    <circle cx="21.47" cy="70.74" r="17.07"/>
    <circle cx="63.98" cy="79.44" r="17.07"/>
    <circle cx="99.93" cy="103.75" r="17.07"/>
    <circle cx="123.83" cy="139.97" r="17.07"/>
    <circle cx="132.06" cy="182.58" r="17.07"/>
    <circle cx="20.89" cy="117.28" r="9.93"/>
    <circle cx="45.64" cy="122.22" r="9.93"/>
    <circle cx="66.61" cy="136.26" r="9.93"/>
    <circle cx="80.62" cy="157.25" r="9.93"/>
    <circle cx="85.52" cy="182.01" r="9.93"/>
    <circle cx="20.87" cy="146.13" r="5.5"/>
    <circle cx="34.58" cy="148.86" r="5.5"/>
    <circle cx="46.2" cy="156.64" r="5.5"/>
    <circle cx="53.95" cy="168.27" r="5.5"/>
    <circle cx="56.67" cy="181.98" r="5.5"/>
  </g>
  <g class="tam-word">
    <path d="M233.65,107.03V34.42h14.31v26.36h40.97v13.11h-40.97v33.14c0,11.75,6.18,16.87,15.52,16.87s15.67-4.97,15.67-16.87v-1.66h14.16v1.66c0,20.19-12.05,30.13-29.83,30.13s-29.83-9.94-29.83-30.13Z"/>
    <path d="M302.21,98.59c0-23.35,16.57-39.77,40.22-39.77s39.62,15.97,39.62,39.77v36.61h-13.11v-16.27c-4.97,12.05-15.97,18.23-28.92,18.23-19.43,0-37.81-14.01-37.81-38.57ZM367.88,97.99c0-15.06-10.24-25.91-25.61-25.91s-25.61,10.85-25.61,25.91,10.24,25.91,25.61,25.91,25.61-10.85,25.61-25.91Z"/>
    <path d="M396.82,92.11c0-22.75,13.26-33.29,30.73-33.29,11.45,0,21.09,5.12,26.21,14.76,5.12-9.64,14.62-14.76,26.21-14.76,17.48,0,30.73,10.55,30.73,33.29v43.08h-14.31v-43.08c0-13.86-7.38-20.03-17.78-20.03s-17.63,6.48-17.63,20.03v43.08h-14.31v-43.08c0-13.56-7.68-20.03-17.78-20.03s-17.78,6.18-17.78,20.03v43.08h-14.31v-43.08Z"/>
    <path d="M522.48,98.59c0-23.35,16.57-39.77,40.22-39.77s39.62,15.97,39.62,39.77v36.61h-13.11v-16.27c-4.97,12.05-15.97,18.23-28.92,18.23-19.43,0-37.81-14.01-37.81-38.57ZM588.16,97.99c0-15.06-10.24-25.91-25.61-25.91s-25.61,10.85-25.61,25.91,10.24,25.91,25.61,25.91,25.61-10.85,25.61-25.91Z"/>
    <path d="M617.1,92.11c0-22.75,13.26-33.29,30.73-33.29,11.45,0,21.09,5.12,26.21,14.76,5.12-9.64,14.61-14.76,26.21-14.76,17.48,0,30.73,10.55,30.73,33.29v43.08h-14.31v-43.08c0-13.86-7.38-20.03-17.78-20.03s-17.63,6.48-17.63,20.03v43.08h-14.31v-43.08c0-13.56-7.68-20.03-17.77-20.03s-17.78,6.18-17.78,20.03v43.08h-14.31v-43.08Z"/>
  </g>
  <g>
    <text class="tam-sub" transform="translate(237.61 180.28)"><tspan x="0" y="0">HEA</tspan><tspan class="tam-ls4" x="94.2" y="0">L</tspan><tspan x="115.4" y="0">THCARE</tspan></text>
    <text class="tam-sub" transform="translate(556.04 180.28)"><tspan class="tam-ls6" x="0" y="0">SY</tspan><tspan class="tam-ls5" x="53.34" y="0">S</tspan><tspan x="78.7" y="0">TEM</tspan></text>
  </g>
</svg>
