<?xml version="1.0" encoding="UTF-8"?>
<svg id="Layer_1" data-name="Layer 1" xmlns="http://www.w3.org/2000/svg" viewBox="0 0 64.42 64.4">
  <defs>
    <style>
      .cls-1 {
        fill: #ffffff;
      }
    </style>
  </defs>
  <path class="cls-1" d="M8.09,47.24c-1.26,0-2.29-1.03-2.29-2.29s1.03-2.29,2.29-2.29,2.29,1.03,2.29,2.29-1.03,2.29-2.29,2.29ZM8.09,43.66c-.71,0-1.29.58-1.29,1.29s.58,1.29,1.29,1.29,1.29-.58,1.29-1.29-.58-1.29-1.29-1.29Z"/>
  <path class="cls-1" d="M8.08,41.27c-1.87,0-3.4-1.52-3.4-3.4s1.52-3.4,3.4-3.4,3.4,1.52,3.4,3.4-1.52,3.4-3.4,3.4ZM8.08,35.48c-1.32,0-2.4,1.08-2.4,2.4s1.07,2.4,2.4,2.4,2.4-1.07,2.4-2.4-1.08-2.4-2.4-2.4Z"/>
  <path class="cls-1" d="M8.08,31.7c-2.86,0-5.19-2.33-5.19-5.19s2.33-5.19,5.19-5.19,5.19,2.33,5.19,5.19-2.33,5.19-5.19,5.19ZM8.08,22.32c-2.31,0-4.19,1.88-4.19,4.19s1.88,4.19,4.19,4.19,4.19-1.88,4.19-4.19-1.88-4.19-4.19-4.19Z"/>
  <path class="cls-1" d="M8.08,16.17C3.63,16.17,0,12.54,0,8.08S3.63,0,8.08,0s8.09,3.63,8.09,8.08-3.63,8.08-8.09,8.08ZM8.08,1c-3.91,0-7.08,3.18-7.08,7.08s3.18,7.08,7.08,7.08,7.09-3.18,7.09-7.08S11.99,1,8.08,1Z"/>
  <path class="cls-1" d="M26.56,19.84c-4.46,0-8.08-3.63-8.08-8.08s3.63-8.08,8.08-8.08,8.08,3.63,8.08,8.08-3.63,8.08-8.08,8.08ZM26.56,4.67c-3.91,0-7.08,3.18-7.08,7.08s3.18,7.08,7.08,7.08,7.08-3.18,7.08-7.08-3.18-7.08-7.08-7.08Z"/>
  <path class="cls-1" d="M42.2,30.31c-4.46,0-8.08-3.63-8.08-8.08s3.63-8.08,8.08-8.08,8.08,3.63,8.08,8.08-3.63,8.08-8.08,8.08ZM42.2,15.14c-3.91,0-7.08,3.18-7.08,7.08s3.18,7.08,7.08,7.08,7.08-3.18,7.08-7.08-3.18-7.08-7.08-7.08Z"/>
  <path class="cls-1" d="M52.67,45.99c-4.46,0-8.08-3.63-8.08-8.08s3.63-8.08,8.08-8.08,8.08,3.63,8.08,8.08-3.63,8.08-8.08,8.08ZM52.67,30.82c-3.91,0-7.08,3.18-7.08,7.08s3.18,7.08,7.08,7.08,7.08-3.18,7.08-7.08-3.18-7.08-7.08-7.08Z"/>
  <path class="cls-1" d="M56.34,64.4c-4.46,0-8.08-3.63-8.08-8.08s3.63-8.08,8.08-8.08,8.08,3.63,8.08,8.08-3.63,8.08-8.08,8.08ZM56.34,49.23c-3.91,0-7.08,3.18-7.08,7.08s3.18,7.08,7.08,7.08,7.08-3.18,7.08-7.08-3.18-7.08-7.08-7.08Z"/>
  <path class="cls-1" d="M19.51,33.97c-2.86,0-5.19-2.33-5.19-5.19s2.33-5.19,5.19-5.19,5.19,2.33,5.19,5.19-2.33,5.19-5.19,5.19ZM19.51,24.59c-2.31,0-4.19,1.88-4.19,4.19s1.88,4.19,4.19,4.19,4.19-1.88,4.19-4.19-1.88-4.19-4.19-4.19Z"/>
  <path class="cls-1" d="M29.18,40.44c-2.86,0-5.19-2.33-5.19-5.19s2.33-5.19,5.19-5.19,5.19,2.33,5.19,5.19-2.33,5.19-5.19,5.19ZM29.18,31.06c-2.31,0-4.19,1.88-4.19,4.19s1.88,4.19,4.19,4.19,4.19-1.88,4.19-4.19-1.88-4.19-4.19-4.19Z"/>
  <path class="cls-1" d="M35.65,50.11c-2.86,0-5.19-2.33-5.19-5.19s2.33-5.19,5.19-5.19,5.19,2.33,5.19,5.19-2.33,5.19-5.19,5.19ZM35.65,40.74c-2.31,0-4.19,1.88-4.19,4.19s1.88,4.19,4.19,4.19,4.19-1.88,4.19-4.19-1.88-4.19-4.19-4.19Z"/>
  <path class="cls-1" d="M37.92,61.51c-2.86,0-5.19-2.33-5.19-5.19s2.33-5.19,5.19-5.19,5.19,2.33,5.19,5.19-2.33,5.19-5.19,5.19ZM37.92,52.13c-2.31,0-4.19,1.88-4.19,4.19s1.88,4.19,4.19,4.19,4.19-1.88,4.19-4.19-1.88-4.19-4.19-4.19Z"/>
  <path class="cls-1" d="M15.15,42.71c-1.87,0-3.4-1.52-3.4-3.4s1.52-3.4,3.4-3.4,3.4,1.52,3.4,3.4-1.52,3.4-3.4,3.4ZM15.15,36.91c-1.32,0-2.4,1.08-2.4,2.4s1.07,2.4,2.4,2.4,2.4-1.07,2.4-2.4-1.07-2.4-2.4-2.4Z"/>
  <path class="cls-1" d="M21.12,46.7c-1.87,0-3.4-1.52-3.4-3.4s1.52-3.4,3.4-3.4,3.4,1.52,3.4,3.4-1.52,3.4-3.4,3.4ZM21.12,40.91c-1.32,0-2.4,1.08-2.4,2.4s1.07,2.4,2.4,2.4,2.4-1.08,2.4-2.4-1.08-2.4-2.4-2.4Z"/>
  <path class="cls-1" d="M25.12,52.68c-1.87,0-3.4-1.52-3.4-3.4s1.52-3.4,3.4-3.4,3.4,1.52,3.4,3.4-1.52,3.4-3.4,3.4ZM25.12,46.89c-1.32,0-2.4,1.08-2.4,2.4s1.07,2.4,2.4,2.4,2.4-1.08,2.4-2.4-1.07-2.4-2.4-2.4Z"/>
  <path class="cls-1" d="M26.56,59.73c-1.87,0-3.4-1.52-3.4-3.4s1.52-3.4,3.4-3.4,3.4,1.52,3.4,3.4-1.52,3.4-3.4,3.4ZM26.56,53.93c-1.32,0-2.4,1.07-2.4,2.4s1.08,2.4,2.4,2.4,2.4-1.08,2.4-2.4-1.07-2.4-2.4-2.4Z"/>
  <path class="cls-1" d="M12.45,48.11c-1.26,0-2.29-1.03-2.29-2.29s1.03-2.29,2.29-2.29,2.29,1.03,2.29,2.29-1.03,2.29-2.29,2.29ZM12.45,44.53c-.71,0-1.29.58-1.29,1.29s.58,1.29,1.29,1.29,1.29-.58,1.29-1.29-.58-1.29-1.29-1.29Z"/>
  <path class="cls-1" d="M16.14,50.58c-1.26,0-2.29-1.03-2.29-2.29s1.03-2.29,2.29-2.29,2.29,1.03,2.29,2.29-1.03,2.29-2.29,2.29ZM16.14,46.99c-.71,0-1.29.58-1.29,1.29s.58,1.29,1.29,1.29,1.29-.58,1.29-1.29-.58-1.29-1.29-1.29Z"/>
  <path class="cls-1" d="M18.61,54.28c-1.26,0-2.29-1.03-2.29-2.29s1.03-2.29,2.29-2.29,2.29,1.03,2.29,2.29-1.03,2.29-2.29,2.29ZM18.61,50.69c-.71,0-1.29.58-1.29,1.29s.58,1.29,1.29,1.29,1.29-.58,1.29-1.29-.58-1.29-1.29-1.29Z"/>
  <path class="cls-1" d="M19.47,58.64c-1.26,0-2.29-1.03-2.29-2.29s1.03-2.29,2.29-2.29,2.29,1.03,2.29,2.29-1.03,2.29-2.29,2.29ZM19.47,55.05c-.71,0-1.29.58-1.29,1.29s.58,1.29,1.29,1.29,1.29-.58,1.29-1.29-.58-1.29-1.29-1.29Z"/>
</svg>
