<?xml version="1.0" encoding="UTF-8"?>
<svg xmlns="http://www.w3.org/2000/svg" viewBox="0 0 685.03 200" role="img" aria-label="Tamam Healthcare System">
  <defs>
    <style>
      .tam-dot { fill: #0d8844; }
      .tam-word { fill: #0e4724; }
    </style>
  </defs>
  <g class="tam-dot">
    <circle cx="564.79" cy="12.94" r="12.94"/>
    <circle cx="605.63" cy="20.76" r="12.94"/>
    <circle cx="640.35" cy="43.61" r="12.94"/>
    <circle cx="663.69" cy="78.02" r="12.94"/>
    <circle cx="672.09" cy="118.73" r="12.94"/>
    <circle cx="565.95" cy="46.45" r="11.21"/>
    <circle cx="593.87" cy="52.17" r="11.21"/>
    <circle cx="617.48" cy="68.13" r="11.21"/>
    <circle cx="633.17" cy="91.91" r="11.21"/>
    <circle cx="638.58" cy="119.89" r="11.21"/>
    <circle cx="565.58" cy="77.01" r="6.52"/>
    <circle cx="581.83" cy="80.26" r="6.52"/>
    <circle cx="595.6" cy="89.47" r="6.52"/>
    <circle cx="604.79" cy="103.26" r="6.52"/>
    <circle cx="608.01" cy="119.52" r="6.52"/>
    <circle cx="565.56" cy="95.96" r="3.61"/>
    <circle cx="574.56" cy="97.75" r="3.61"/>
    <circle cx="582.19" cy="102.86" r="3.61"/>
    <circle cx="587.29" cy="110.49" r="3.61"/>
    <circle cx="589.07" cy="119.5" r="3.61"/>
  </g>
  <g class="tam-word">
    <path d="M0,161.23v-84.65h16.69v30.73h47.77v15.28H16.69v38.64c0,13.7,7.2,19.67,18.09,19.67s18.27-5.8,18.27-19.67v-1.93h16.51v1.93c0,23.54-14.05,35.13-34.78,35.13S0,184.77,0,161.23Z"/>
    <path d="M79.93,151.4c0-27.22,19.32-46.37,46.89-46.37s46.19,18.62,46.19,46.37v42.68h-15.28v-18.97c-5.8,14.05-18.62,21.25-33.72,21.25-22.66,0-44.08-16.33-44.08-44.96ZM156.5,150.7c0-17.56-11.94-30.21-29.86-30.21s-29.86,12.65-29.86,30.21,11.94,30.21,29.86,30.21,29.86-12.65,29.86-30.21Z"/>
    <path d="M190.24,143.85c0-26.52,15.46-38.81,35.83-38.81,13.35,0,24.59,5.97,30.56,17.21,5.97-11.24,17.04-17.21,30.56-17.21,20.37,0,35.83,12.29,35.83,38.81v50.23h-16.69v-50.23c0-16.16-8.61-23.36-20.73-23.36s-20.55,7.55-20.55,23.36v50.23h-16.68v-50.23c0-15.81-8.96-23.36-20.73-23.36s-20.73,7.2-20.73,23.36v50.23h-16.69v-50.23Z"/>
    <path d="M336.74,151.4c0-27.22,19.32-46.37,46.89-46.37s46.19,18.62,46.19,46.37v42.68h-15.28v-18.97c-5.8,14.05-18.62,21.25-33.72,21.25-22.66,0-44.08-16.33-44.08-44.96ZM413.31,150.7c0-17.56-11.94-30.21-29.86-30.21s-29.86,12.65-29.86,30.21,11.94,30.21,29.86,30.21,29.86-12.65,29.86-30.21Z"/>
    <path d="M447.05,143.85c0-26.52,15.46-38.81,35.83-38.81,13.35,0,24.59,5.97,30.56,17.21,5.97-11.24,17.04-17.21,30.56-17.21,20.37,0,35.83,12.29,35.83,38.81v50.23h-16.69v-50.23c0-16.16-8.61-23.36-20.73-23.36s-20.55,7.55-20.55,23.36v50.23h-16.69v-50.23c0-15.81-8.96-23.36-20.72-23.36s-20.73,7.2-20.73,23.36v50.23h-16.69v-50.23Z"/>
  </g>
</svg>
