<?xml version="1.0" encoding="UTF-8"?>
<svg id="Layer_1" data-name="Layer 1" xmlns="http://www.w3.org/2000/svg" viewBox="0 0 123.58 28.66">
  <defs>
    <style>
      .cls-1 {
        fill: #10195A;
      }

      .cls-2 {
        fill: #10195A;
      }
    </style>
  </defs>
  <g>
    <path class="cls-2" d="M39.59,19.93h.89v2.78c.32-.57.86-.88,1.54-.88,1.15,0,2.13.72,2.13,2.34v2.4h-.89v-2.4c0-1-.55-1.51-1.39-1.51s-1.39.52-1.39,1.51v2.4h-.89v-6.64Z"/>
    <path class="cls-2" d="M44.88,24.26c0-1.4,1.03-2.43,2.49-2.43s2.47,1.03,2.47,2.43v.33h-4.02c.13.82.75,1.28,1.55,1.28.6,0,1.02-.19,1.29-.59h.98c-.36.86-1.2,1.41-2.27,1.41-1.46,0-2.49-1.03-2.49-2.43ZM48.9,23.79c-.18-.74-.79-1.14-1.53-1.14s-1.35.41-1.52,1.14h3.06Z"/>
    <path class="cls-2" d="M50.38,24.29c0-1.45,1.03-2.47,2.5-2.47s2.46.99,2.46,2.47v2.27h-.81v-1.01c-.31.75-.99,1.13-1.79,1.13-1.21,0-2.35-.87-2.35-2.39ZM54.45,24.26c0-.93-.64-1.61-1.59-1.61s-1.59.67-1.59,1.61.64,1.61,1.59,1.61,1.59-.67,1.59-1.61Z"/>
    <path class="cls-2" d="M56.42,19.93h.89v6.64h-.89v-6.64Z"/>
    <path class="cls-2" d="M58.39,24.82v-4.51h.89v1.64h2.54v.81h-2.54v2.06c0,.73.38,1.05.96,1.05s.97-.31.97-1.05v-.1h.88v.1c0,1.25-.75,1.87-1.85,1.87s-1.85-.62-1.85-1.87Z"/>
    <path class="cls-2" d="M62.98,19.93h.89v2.78c.32-.57.86-.88,1.54-.88,1.15,0,2.13.72,2.13,2.34v2.4h-.89v-2.4c0-1-.55-1.51-1.39-1.51s-1.39.52-1.39,1.51v2.4h-.89v-6.64Z"/>
    <path class="cls-2" d="M68.27,24.26c0-1.4,1.03-2.43,2.49-2.43,1.22,0,2.14.73,2.38,1.79h-.9c-.22-.59-.77-.97-1.49-.97-.95,0-1.59.67-1.59,1.61s.64,1.61,1.59,1.61c.72,0,1.26-.38,1.49-.97h.9c-.24,1.07-1.16,1.79-2.38,1.79-1.46,0-2.49-1.03-2.49-2.43Z"/>
    <path class="cls-2" d="M73.69,24.29c0-1.45,1.03-2.47,2.5-2.47s2.46.99,2.46,2.47v2.27h-.81v-1.01c-.31.75-.99,1.13-1.79,1.13-1.21,0-2.35-.87-2.35-2.39ZM77.77,24.26c0-.93-.64-1.61-1.59-1.61s-1.59.67-1.59,1.61.64,1.61,1.59,1.61,1.59-.67,1.59-1.61Z"/>
    <path class="cls-2" d="M79.56,23.85c0-1.36.8-2.02,1.99-2.02s1.98.65,1.98,2.03v.05h-.88v-.06c0-.85-.45-1.2-1.1-1.2s-1.1.35-1.1,1.2v2.72h-.89v-2.72Z"/>
    <path class="cls-2" d="M83.95,24.26c0-1.4,1.03-2.43,2.49-2.43s2.47,1.03,2.47,2.43v.33h-4.02c.13.82.75,1.28,1.55,1.28.6,0,1.02-.19,1.29-.59h.98c-.36.86-1.2,1.41-2.27,1.41-1.46,0-2.49-1.03-2.49-2.43ZM87.97,23.79c-.18-.74-.79-1.14-1.53-1.14s-1.35.41-1.52,1.14h3.06Z"/>
    <path class="cls-2" d="M91.95,25.23h.9c.02.38.37.65,1.02.65s1.02-.29,1.02-.65c0-.44-.49-.5-1.07-.57-.8-.1-1.78-.25-1.78-1.31,0-.91.71-1.52,1.81-1.52s1.79.63,1.8,1.42h-.88c-.03-.36-.36-.62-.92-.62-.59,0-.93.28-.93.65,0,.44.49.49,1.06.56.8.1,1.79.25,1.79,1.31,0,.93-.76,1.54-1.92,1.54s-1.89-.62-1.92-1.46Z"/>
    <path class="cls-2" d="M96.57,27.12h.89c.21.52.67.77,1.34.77.86,0,1.41-.41,1.41-1.46v-.66c-.29.57-.85.89-1.54.89-1.15,0-2.13-.72-2.13-2.34v-2.36h.89v2.36c0,1,.55,1.51,1.39,1.51s1.39-.52,1.39-1.51v-2.36h.89v4.46c0,1.61-1.02,2.25-2.3,2.25-1.07,0-1.95-.5-2.22-1.54Z"/>
    <path class="cls-2" d="M101.99,25.23h.9c.02.38.37.65,1.02.65s1.02-.29,1.02-.65c0-.44-.49-.5-1.07-.57-.8-.1-1.78-.25-1.78-1.31,0-.91.71-1.52,1.81-1.52s1.79.63,1.8,1.42h-.88c-.03-.36-.36-.62-.92-.62-.59,0-.93.28-.93.65,0,.44.49.49,1.06.56.8.1,1.79.25,1.79,1.31,0,.93-.76,1.54-1.92,1.54s-1.89-.62-1.92-1.46Z"/>
    <path class="cls-2" d="M106.57,24.82v-4.51h.89v1.64h2.54v.81h-2.54v2.06c0,.73.38,1.05.96,1.05s.97-.31.97-1.05v-.1h.88v.1c0,1.25-.75,1.87-1.85,1.87s-1.85-.62-1.85-1.87Z"/>
    <path class="cls-2" d="M110.83,24.26c0-1.4,1.03-2.43,2.49-2.43s2.47,1.03,2.47,2.43v.33h-4.02c.13.82.75,1.28,1.55,1.28.6,0,1.02-.19,1.29-.59h.98c-.36.86-1.2,1.41-2.27,1.41-1.46,0-2.49-1.03-2.49-2.43ZM114.85,23.79c-.18-.74-.79-1.14-1.53-1.14s-1.35.41-1.52,1.14h3.06Z"/>
    <path class="cls-2" d="M116.51,23.89c0-1.41.82-2.07,1.91-2.07.71,0,1.31.32,1.63.92.32-.6.91-.92,1.63-.92,1.08,0,1.91.65,1.91,2.07v2.67h-.89v-2.67c0-.86-.46-1.24-1.1-1.24s-1.09.4-1.09,1.24v2.67h-.89v-2.67c0-.84-.48-1.24-1.1-1.24s-1.1.38-1.1,1.24v2.67h-.89v-2.67Z"/>
  </g>
  <g>
    <path class="cls-2" d="M39.59,3.85h-4.69V.99h12.46v2.86h-4.69v12.87h-3.08V3.85Z"/>
    <path class="cls-2" d="M48.73,7.51c0-4.21,2.41-6.83,6.86-6.83s6.9,2.62,6.9,6.83v9.21h-3.08v-4.72h-7.67v4.72h-3.01V7.51ZM59.41,9.21v-1.71c0-2.53-1.25-3.97-3.85-3.97s-3.83,1.44-3.83,3.97v1.71h7.67Z"/>
    <path class="cls-2" d="M65,6.59c0-4.04,2.38-5.92,5.48-5.92,2,0,3.56.84,4.47,2.41.91-1.56,2.48-2.41,4.47-2.41,3.1,0,5.48,1.88,5.48,5.92v10.13h-3.08V6.59c0-2.16-1.15-3.06-2.67-3.06s-2.67.91-2.67,3.06v10.13h-3.08V6.59c0-2.14-1.15-3.06-2.67-3.06s-2.67.89-2.67,3.06v10.13h-3.08V6.59Z"/>
    <path class="cls-2" d="M87.39,7.51c0-4.21,2.41-6.83,6.86-6.83s6.9,2.62,6.9,6.83v9.21h-3.08v-4.72h-7.67v4.72h-3.01V7.51ZM98.08,9.21v-1.71c0-2.53-1.25-3.97-3.85-3.97s-3.83,1.44-3.83,3.97v1.71h7.67Z"/>
    <path class="cls-2" d="M103.66,6.59c0-4.04,2.38-5.92,5.48-5.92,2,0,3.56.84,4.47,2.41.91-1.56,2.48-2.41,4.47-2.41,3.1,0,5.48,1.88,5.48,5.92v10.13h-3.08V6.59c0-2.16-1.15-3.06-2.67-3.06s-2.67.91-2.67,3.06v10.13h-3.08V6.59c0-2.14-1.15-3.06-2.67-3.06s-2.67.89-2.67,3.06v10.13h-3.08V6.59Z"/>
  </g>
  <g>
    <circle class="cls-1" cx="3.31" cy="19.4" r=".78"/>
    <circle class="cls-1" cx="3.31" cy="16.31" r="1.26"/>
    <circle class="cls-1" cx="3.31" cy="11.35" r="2.05"/>
    <circle class="cls-1" cx="3.31" cy="3.31" r="3.31"/>
    <circle class="cls-1" cx="11.38" cy="4.91" r="3.31"/>
    <circle class="cls-1" cx="18.2" cy="9.48" r="3.31"/>
    <circle class="cls-1" cx="22.77" cy="16.33" r="3.31"/>
    <circle class="cls-1" cx="24.37" cy="24.36" r="3.31"/>
    <circle class="cls-1" cx="8.3" cy="12.34" r="2.05"/>
    <circle class="cls-1" cx="12.52" cy="15.17" r="2.05"/>
    <circle class="cls-1" cx="15.34" cy="19.39" r="2.05"/>
    <circle class="cls-1" cx="16.33" cy="24.36" r="2.05"/>
    <circle class="cls-1" cx="6.39" cy="16.94" r="1.26"/>
    <circle class="cls-1" cx="9" cy="18.68" r="1.26"/>
    <circle class="cls-1" cx="10.75" cy="21.29" r="1.26"/>
    <circle class="cls-1" cx="11.38" cy="24.37" r="1.26"/>
    <circle class="cls-1" cx="5.22" cy="19.78" r=".78"/>
    <circle class="cls-1" cx="6.82" cy="20.86" r=".78"/>
    <circle class="cls-1" cx="7.9" cy="22.47" r=".78"/>
    <circle class="cls-1" cx="8.28" cy="24.38" r=".78"/>
  </g>
</svg>