<?xml version="1.0" encoding="UTF-8"?>
<svg id="Layer_1" data-name="Layer 1" xmlns="http://www.w3.org/2000/svg" viewBox="0 0 50.18 33.44">
  <defs>
    <style>
      .cls-1 {
        fill: #10195A;
      }

      .cls-2 {
        fill: #10195A;
      }
    </style>
  </defs>
  <g>
    <path class="cls-2" d="M0,26.25V8.93h3.41v6.29h9.77v3.13H3.41v7.9c0,2.8,1.47,4.02,3.7,4.02s3.74-1.19,3.74-4.02v-.4h3.38v.4c0,4.82-2.87,7.19-7.11,7.19S0,31.07,0,26.25Z"/>
    <path class="cls-2" d="M16.35,24.24c0-5.57,3.95-9.49,9.59-9.49s9.45,3.81,9.45,9.49v8.73h-3.13v-3.88c-1.19,2.87-3.81,4.35-6.9,4.35-4.63,0-9.02-3.34-9.02-9.2ZM32.02,24.1c0-3.59-2.44-6.18-6.11-6.18s-6.11,2.59-6.11,6.18,2.44,6.18,6.11,6.18,6.11-2.59,6.11-6.18Z"/>
  </g>
  <g>
    <circle class="cls-1" cx="33.75" cy="13.08" r=".53"/>
    <circle class="cls-1" cx="33.75" cy="11" r=".85"/>
    <circle class="cls-1" cx="33.75" cy="7.65" r="1.38"/>
    <circle class="cls-1" cx="33.75" cy="2.23" r="2.23"/>
    <circle class="cls-1" cx="39.19" cy="3.31" r="2.23"/>
    <circle class="cls-1" cx="43.79" cy="6.39" r="2.23"/>
    <circle class="cls-1" cx="46.87" cy="11.01" r="2.23"/>
    <circle class="cls-1" cx="47.95" cy="16.42" r="2.23"/>
    <circle class="cls-1" cx="37.11" cy="8.32" r="1.38"/>
    <circle class="cls-1" cx="39.96" cy="10.22" r="1.38"/>
    <circle class="cls-1" cx="41.86" cy="13.07" r="1.38"/>
    <circle class="cls-1" cx="42.53" cy="16.42" r="1.38"/>
    <circle class="cls-1" cx="35.83" cy="11.42" r=".85"/>
    <circle class="cls-1" cx="37.58" cy="12.6" r=".85"/>
    <circle class="cls-1" cx="38.76" cy="14.36" r=".85"/>
    <circle class="cls-1" cx="39.19" cy="16.43" r=".85"/>
    <circle class="cls-1" cx="35.04" cy="13.34" r=".53"/>
    <circle class="cls-1" cx="36.12" cy="14.06" r=".53"/>
    <circle class="cls-1" cx="36.85" cy="15.15" r=".53"/>
    <circle class="cls-1" cx="37.1" cy="16.43" r=".53"/>
  </g>
</svg>