<?xml version="1.0" encoding="UTF-8"?>
<svg id="Layer_1" data-name="Layer 1" xmlns="http://www.w3.org/2000/svg" viewBox="0 0 118.59 55.34">
  <defs>
    <style>
      .cls-1 {
        fill: #2191D0;
      }

      .cls-2 {
        fill: #2191D0;
      }
    </style>
  </defs>
  <g>
    <circle class="cls-1" cx="90.67" cy="22.22" r=".9"/>
    <circle class="cls-1" cx="90.67" cy="18.69" r="1.45"/>
    <circle class="cls-1" cx="90.67" cy="13" r="2.34"/>
    <circle class="cls-1" cx="90.67" cy="3.79" r="3.79"/>
    <circle class="cls-1" cx="99.91" cy="5.63" r="3.79"/>
    <circle class="cls-1" cx="107.73" cy="10.86" r="3.79"/>
    <circle class="cls-1" cx="112.96" cy="18.7" r="3.79"/>
    <circle class="cls-1" cx="114.79" cy="27.91" r="3.79"/>
    <circle class="cls-1" cx="96.38" cy="14.14" r="2.34"/>
    <circle class="cls-1" cx="101.21" cy="17.37" r="2.34"/>
    <circle class="cls-1" cx="104.45" cy="22.21" r="2.34"/>
    <circle class="cls-1" cx="105.58" cy="27.91" r="2.34"/>
    <circle class="cls-1" cx="94.2" cy="19.4" r="1.45"/>
    <circle class="cls-1" cx="97.18" cy="21.4" r="1.45"/>
    <circle class="cls-1" cx="99.18" cy="24.39" r="1.45"/>
    <circle class="cls-1" cx="99.91" cy="27.91" r="1.45"/>
    <circle class="cls-1" cx="92.85" cy="22.66" r=".9"/>
    <circle class="cls-1" cx="94.69" cy="23.89" r=".9"/>
    <circle class="cls-1" cx="95.93" cy="25.74" r=".9"/>
    <circle class="cls-1" cx="96.36" cy="27.92" r=".9"/>
  </g>
  <g>
    <path class="cls-2" d="M4.86,46.29h.92v2.88c.33-.59.89-.91,1.6-.91,1.19,0,2.21.75,2.21,2.42v2.49h-.92v-2.49c0-1.04-.57-1.57-1.44-1.57s-1.44.54-1.44,1.57v2.49h-.92v-6.88Z"/>
    <path class="cls-2" d="M10.35,50.77c0-1.45,1.07-2.52,2.58-2.52s2.56,1.07,2.56,2.52v.34h-4.17c.14.85.78,1.33,1.61,1.33.62,0,1.06-.19,1.34-.61h1.02c-.37.89-1.24,1.46-2.36,1.46-1.51,0-2.58-1.07-2.58-2.52ZM14.52,50.29c-.18-.77-.81-1.18-1.59-1.18s-1.4.43-1.58,1.18h3.17Z"/>
    <path class="cls-2" d="M16.05,50.81c0-1.5,1.07-2.56,2.59-2.56s2.55,1.03,2.55,2.56v2.36h-.84v-1.05c-.32.78-1.03,1.17-1.86,1.17-1.25,0-2.43-.9-2.43-2.48ZM20.27,50.77c0-.97-.66-1.67-1.65-1.67s-1.65.7-1.65,1.67.66,1.67,1.65,1.67,1.65-.7,1.65-1.67Z"/>
    <path class="cls-2" d="M22.31,46.29h.92v6.88h-.92v-6.88Z"/>
    <path class="cls-2" d="M24.35,51.35v-4.67h.92v1.7h2.64v.84h-2.64v2.13c0,.76.4,1.09,1,1.09s1.01-.32,1.01-1.09v-.11h.91v.11c0,1.3-.78,1.94-1.92,1.94s-1.92-.64-1.92-1.94Z"/>
    <path class="cls-2" d="M29.11,46.29h.92v2.88c.33-.59.89-.91,1.6-.91,1.19,0,2.21.75,2.21,2.42v2.49h-.92v-2.49c0-1.04-.57-1.57-1.44-1.57s-1.44.54-1.44,1.57v2.49h-.92v-6.88Z"/>
    <path class="cls-2" d="M34.6,50.77c0-1.45,1.07-2.52,2.58-2.52,1.27,0,2.22.76,2.47,1.86h-.93c-.23-.61-.79-1.01-1.54-1.01-.99,0-1.65.7-1.65,1.67s.66,1.67,1.65,1.67c.75,0,1.31-.4,1.54-1.01h.93c-.25,1.1-1.2,1.86-2.47,1.86-1.51,0-2.58-1.07-2.58-2.52Z"/>
    <path class="cls-2" d="M40.22,50.81c0-1.5,1.07-2.56,2.59-2.56s2.55,1.03,2.55,2.56v2.36h-.84v-1.05c-.32.78-1.03,1.17-1.86,1.17-1.25,0-2.43-.9-2.43-2.48ZM44.44,50.77c0-.97-.66-1.67-1.65-1.67s-1.65.7-1.65,1.67.66,1.67,1.65,1.67,1.65-.7,1.65-1.67Z"/>
    <path class="cls-2" d="M46.3,50.35c0-1.42.83-2.09,2.06-2.09s2.05.68,2.05,2.1v.05h-.91v-.06c0-.88-.47-1.24-1.14-1.24s-1.14.36-1.14,1.24v2.82h-.92v-2.82Z"/>
    <path class="cls-2" d="M50.86,50.77c0-1.45,1.07-2.52,2.58-2.52s2.56,1.07,2.56,2.52v.34h-4.17c.14.85.78,1.33,1.61,1.33.62,0,1.06-.19,1.34-.61h1.02c-.37.89-1.24,1.46-2.36,1.46-1.51,0-2.58-1.07-2.58-2.52ZM55.03,50.29c-.18-.77-.81-1.18-1.59-1.18s-1.4.43-1.58,1.18h3.17Z"/>
    <path class="cls-2" d="M59.15,51.78h.93c.02.4.39.68,1.06.68s1.06-.3,1.06-.68c0-.46-.5-.51-1.1-.59-.83-.11-1.84-.26-1.84-1.36,0-.94.74-1.58,1.88-1.58s1.85.65,1.87,1.47h-.91c-.03-.37-.37-.64-.95-.64-.61,0-.96.29-.96.67,0,.46.5.5,1.1.58.83.11,1.85.26,1.85,1.36,0,.97-.79,1.6-1.99,1.6s-1.96-.64-1.99-1.51Z"/>
    <path class="cls-2" d="M63.94,53.74h.92c.22.54.7.79,1.39.79.89,0,1.46-.43,1.46-1.51v-.69c-.3.59-.88.92-1.6.92-1.19,0-2.21-.75-2.21-2.42v-2.45h.92v2.45c0,1.04.57,1.56,1.44,1.56s1.44-.54,1.44-1.56v-2.45h.92v4.62c0,1.67-1.06,2.34-2.38,2.34-1.1,0-2.03-.51-2.31-1.6Z"/>
    <path class="cls-2" d="M69.56,51.78h.93c.02.4.39.68,1.06.68s1.06-.3,1.06-.68c0-.46-.5-.51-1.1-.59-.83-.11-1.84-.26-1.84-1.36,0-.94.74-1.58,1.88-1.58s1.85.65,1.87,1.47h-.91c-.03-.37-.37-.64-.95-.64-.61,0-.96.29-.96.67,0,.46.5.5,1.1.58.83.11,1.85.26,1.85,1.36,0,.97-.79,1.6-1.99,1.6s-1.96-.64-1.99-1.51Z"/>
    <path class="cls-2" d="M74.31,51.35v-4.67h.92v1.7h2.64v.84h-2.64v2.13c0,.76.4,1.09,1,1.09s1.01-.32,1.01-1.09v-.11h.91v.11c0,1.3-.78,1.94-1.92,1.94s-1.92-.64-1.92-1.94Z"/>
    <path class="cls-2" d="M78.72,50.77c0-1.45,1.07-2.52,2.58-2.52s2.56,1.07,2.56,2.52v.34h-4.17c.14.85.78,1.33,1.61,1.33.62,0,1.06-.19,1.34-.61h1.02c-.37.89-1.24,1.46-2.36,1.46-1.51,0-2.58-1.07-2.58-2.52ZM82.89,50.29c-.18-.77-.81-1.18-1.59-1.18s-1.4.43-1.58,1.18h3.17Z"/>
    <path class="cls-2" d="M84.61,50.39c0-1.46.85-2.14,1.98-2.14.74,0,1.36.33,1.69.95.33-.62.94-.95,1.69-.95,1.12,0,1.98.68,1.98,2.14v2.77h-.92v-2.77c0-.89-.47-1.29-1.14-1.29s-1.13.42-1.13,1.29v2.77h-.92v-2.77c0-.87-.49-1.29-1.14-1.29s-1.14.4-1.14,1.29v2.77h-.92v-2.77Z"/>
  </g>
  <g>
    <path class="cls-2" d="M4.86,29.61H0v-2.97h12.92v2.97h-4.86v13.34h-3.19v-13.34Z"/>
    <path class="cls-2" d="M14.34,33.41c0-4.37,2.49-7.08,7.11-7.08s7.16,2.72,7.16,7.08v9.55h-3.19v-4.89h-7.96v4.89h-3.12v-9.55ZM25.42,35.18v-1.77c0-2.62-1.3-4.12-3.99-4.12s-3.97,1.5-3.97,4.12v1.77h7.96Z"/>
    <path class="cls-2" d="M31.2,32.46c0-4.19,2.47-6.14,5.69-6.14,2.07,0,3.69.87,4.64,2.49.95-1.62,2.57-2.49,4.64-2.49,3.22,0,5.69,1.95,5.69,6.14v10.5h-3.19v-10.5c0-2.24-1.2-3.17-2.77-3.17s-2.77.95-2.77,3.17v10.5h-3.19v-10.5c0-2.22-1.2-3.17-2.77-3.17s-2.77.92-2.77,3.17v10.5h-3.19v-10.5Z"/>
    <path class="cls-2" d="M54.43,33.41c0-4.37,2.49-7.08,7.11-7.08s7.16,2.72,7.16,7.08v9.55h-3.19v-4.89h-7.96v4.89h-3.12v-9.55ZM65.5,35.18v-1.77c0-2.62-1.3-4.12-3.99-4.12s-3.97,1.5-3.97,4.12v1.77h7.96Z"/>
    <path class="cls-2" d="M71.29,32.46c0-4.19,2.47-6.14,5.69-6.14,2.07,0,3.69.87,4.64,2.49.95-1.62,2.57-2.49,4.64-2.49,3.22,0,5.69,1.95,5.69,6.14v10.5h-3.19v-10.5c0-2.24-1.2-3.17-2.77-3.17s-2.77.95-2.77,3.17v10.5h-3.19v-10.5c0-2.22-1.2-3.17-2.77-3.17s-2.77.92-2.77,3.17v10.5h-3.19v-10.5Z"/>
  </g>
</svg>