<?xml version="1.0" encoding="UTF-8"?>
<svg id="Layer_1" data-name="Layer 1" xmlns="http://www.w3.org/2000/svg" viewBox="0 0 100.57 72.68">
  <defs>
    <style>
      .cls-1 {
        fill: #2191d0;
      }

      .cls-2 {
        fill: #015697;
      }
    </style>
  </defs>
  <g>
    <path class="cls-2" d="M5.32,44.54H0v-3.25h14.13v3.25h-5.32v14.6h-3.49v-14.6Z"/>
    <path class="cls-2" d="M15.69,48.69c0-4.77,2.73-7.75,7.78-7.75s7.83,2.97,7.83,7.75v10.45h-3.49v-5.35h-8.7v5.35h-3.41v-10.45ZM27.8,50.63v-1.94c0-2.86-1.42-4.5-4.37-4.5s-4.34,1.64-4.34,4.5v1.94h8.7Z"/>
    <path class="cls-2" d="M34.13,47.65c0-4.58,2.7-6.71,6.22-6.71,2.26,0,4.04.95,5.07,2.73,1.04-1.77,2.81-2.73,5.07-2.73,3.52,0,6.22,2.13,6.22,6.71v11.49h-3.49v-11.49c0-2.46-1.31-3.46-3.03-3.46s-3.03,1.04-3.03,3.46v11.49h-3.49v-11.49c0-2.43-1.31-3.46-3.03-3.46s-3.03,1.01-3.03,3.46v11.49h-3.49v-11.49Z"/>
    <path class="cls-2" d="M59.53,48.69c0-4.77,2.73-7.75,7.78-7.75s7.83,2.97,7.83,7.75v10.45h-3.49v-5.35h-8.7v5.35h-3.41v-10.45ZM71.65,50.63v-1.94c0-2.86-1.42-4.5-4.37-4.5s-4.34,1.64-4.34,4.5v1.94h8.7Z"/>
    <path class="cls-2" d="M77.98,47.65c0-4.58,2.7-6.71,6.22-6.71,2.26,0,4.04.95,5.07,2.73,1.04-1.77,2.81-2.73,5.07-2.73,3.52,0,6.22,2.13,6.22,6.71v11.49h-3.49v-11.49c0-2.46-1.31-3.46-3.03-3.46s-3.03,1.04-3.03,3.46v11.49h-3.49v-11.49c0-2.43-1.31-3.46-3.03-3.46s-3.03,1.01-3.03,3.46v11.49h-3.49v-11.49Z"/>
  </g>
  <g>
    <path class="cls-2" d="M5.32,62.78h1.01v3.15c.36-.65.98-1,1.75-1,1.3,0,2.42.82,2.42,2.65v2.72h-1.01v-2.72c0-1.13-.63-1.72-1.58-1.72s-1.58.59-1.58,1.72v2.72h-1.01v-7.53Z"/>
    <path class="cls-2" d="M11.32,67.69c0-1.59,1.17-2.76,2.82-2.76s2.8,1.17,2.8,2.76v.37h-4.56c.15.93.85,1.45,1.76,1.45.68,0,1.16-.21,1.46-.67h1.11c-.4.98-1.36,1.6-2.58,1.6-1.65,0-2.82-1.17-2.82-2.76ZM15.88,67.16c-.2-.84-.89-1.29-1.74-1.29s-1.53.47-1.73,1.29h3.47Z"/>
    <path class="cls-2" d="M17.55,67.73c0-1.64,1.17-2.8,2.83-2.8s2.79,1.12,2.79,2.8v2.58h-.92v-1.14c-.35.85-1.12,1.28-2.04,1.28-1.37,0-2.66-.99-2.66-2.71ZM22.17,67.69c0-1.06-.72-1.82-1.8-1.82s-1.8.76-1.8,1.82.72,1.82,1.8,1.82,1.8-.76,1.8-1.82Z"/>
    <path class="cls-2" d="M24.4,62.78h1.01v7.53h-1.01v-7.53Z"/>
    <path class="cls-2" d="M26.64,68.32v-5.11h1.01v1.86h2.88v.92h-2.88v2.33c0,.83.43,1.19,1.09,1.19s1.1-.35,1.1-1.19v-.12h1v.12c0,1.42-.85,2.12-2.1,2.12s-2.1-.7-2.1-2.12Z"/>
    <path class="cls-2" d="M31.84,62.78h1.01v3.15c.36-.65.98-1,1.75-1,1.3,0,2.42.82,2.42,2.65v2.72h-1.01v-2.72c0-1.13-.63-1.72-1.58-1.72s-1.58.59-1.58,1.72v2.72h-1.01v-7.53Z"/>
    <path class="cls-2" d="M37.84,67.69c0-1.59,1.17-2.76,2.82-2.76,1.39,0,2.43.83,2.7,2.04h-1.02c-.25-.67-.87-1.1-1.69-1.1-1.08,0-1.8.76-1.8,1.82s.72,1.82,1.8,1.82c.82,0,1.43-.43,1.69-1.1h1.02c-.28,1.21-1.31,2.04-2.7,2.04-1.65,0-2.82-1.17-2.82-2.76Z"/>
    <path class="cls-2" d="M43.99,67.73c0-1.64,1.17-2.8,2.83-2.8s2.79,1.12,2.79,2.8v2.58h-.92v-1.14c-.35.85-1.12,1.28-2.04,1.28-1.37,0-2.66-.99-2.66-2.71ZM48.61,67.69c0-1.06-.72-1.82-1.8-1.82s-1.8.76-1.8,1.82.72,1.82,1.8,1.82,1.8-.76,1.8-1.82Z"/>
    <path class="cls-2" d="M50.65,67.22c0-1.55.91-2.29,2.26-2.29s2.25.74,2.25,2.3v.05h-1v-.06c0-.96-.51-1.36-1.25-1.36s-1.25.39-1.25,1.36v3.08h-1.01v-3.08Z"/>
    <path class="cls-2" d="M55.63,67.69c0-1.59,1.17-2.76,2.82-2.76s2.8,1.17,2.8,2.76v.37h-4.56c.15.93.85,1.45,1.76,1.45.68,0,1.16-.21,1.46-.67h1.11c-.4.98-1.36,1.6-2.58,1.6-1.65,0-2.82-1.17-2.82-2.76ZM60.19,67.16c-.2-.84-.89-1.29-1.74-1.29s-1.53.47-1.73,1.29h3.47Z"/>
    <path class="cls-2" d="M64.7,68.79h1.02c.02.43.42.74,1.16.74s1.16-.33,1.16-.74c0-.5-.55-.56-1.21-.65-.91-.12-2.01-.29-2.01-1.48,0-1.03.81-1.73,2.06-1.73s2.02.71,2.05,1.61h-1c-.03-.4-.4-.7-1.04-.7-.67,0-1.05.32-1.05.73,0,.5.55.55,1.2.64.91.12,2.02.29,2.02,1.48,0,1.06-.86,1.75-2.17,1.75s-2.14-.7-2.17-1.65Z"/>
    <path class="cls-2" d="M69.94,70.93h1.01c.24.59.76.87,1.52.87.98,0,1.6-.47,1.6-1.65v-.75c-.33.65-.96,1.01-1.75,1.01-1.3,0-2.42-.82-2.42-2.65v-2.68h1.01v2.68c0,1.13.63,1.71,1.58,1.71s1.58-.59,1.58-1.71v-2.68h1.01v5.06c0,1.82-1.16,2.55-2.61,2.55-1.21,0-2.22-.56-2.52-1.75Z"/>
    <path class="cls-2" d="M76.09,68.79h1.02c.02.43.42.74,1.16.74s1.16-.33,1.16-.74c0-.5-.55-.56-1.21-.65-.91-.12-2.01-.29-2.01-1.48,0-1.03.81-1.73,2.06-1.73s2.02.71,2.05,1.61h-1c-.03-.4-.4-.7-1.04-.7-.67,0-1.05.32-1.05.73,0,.5.55.55,1.2.64.91.12,2.02.29,2.02,1.48,0,1.06-.86,1.75-2.17,1.75s-2.14-.7-2.17-1.65Z"/>
    <path class="cls-2" d="M81.28,68.32v-5.11h1.01v1.86h2.88v.92h-2.88v2.33c0,.83.43,1.19,1.09,1.19s1.1-.35,1.1-1.19v-.12h1v.12c0,1.42-.85,2.12-2.1,2.12s-2.1-.7-2.1-2.12Z"/>
    <path class="cls-2" d="M86.11,67.69c0-1.59,1.17-2.76,2.82-2.76s2.8,1.17,2.8,2.76v.37h-4.56c.15.93.85,1.45,1.76,1.45.68,0,1.16-.21,1.46-.67h1.11c-.4.98-1.36,1.6-2.58,1.6-1.65,0-2.82-1.17-2.82-2.76ZM90.66,67.16c-.2-.84-.89-1.29-1.74-1.29s-1.53.47-1.73,1.29h3.47Z"/>
    <path class="cls-2" d="M92.55,67.27c0-1.6.93-2.34,2.16-2.34.81,0,1.48.36,1.84,1.04.36-.68,1.03-1.04,1.84-1.04,1.23,0,2.16.74,2.16,2.34v3.03h-1.01v-3.03c0-.98-.52-1.41-1.25-1.41s-1.24.46-1.24,1.41v3.03h-1.01v-3.03c0-.95-.54-1.41-1.25-1.41s-1.25.43-1.25,1.41v3.03h-1.01v-3.03Z"/>
  </g>
  <g>
    <circle class="cls-1" cx="36.44" cy="25.51" r="1.03"/>
    <circle class="cls-1" cx="36.43" cy="21.45" r="1.66"/>
    <circle class="cls-1" cx="36.43" cy="14.93" r="2.69"/>
    <circle class="cls-1" cx="36.43" cy="4.35" r="4.35"/>
    <circle class="cls-1" cx="47.04" cy="6.46" r="4.35"/>
    <circle class="cls-1" cx="56.02" cy="12.47" r="4.35"/>
    <circle class="cls-1" cx="62.03" cy="21.47" r="4.35"/>
    <circle class="cls-1" cx="64.13" cy="32.04" r="4.35"/>
    <circle class="cls-1" cx="42.99" cy="16.23" r="2.69"/>
    <circle class="cls-1" cx="48.54" cy="19.94" r="2.69"/>
    <circle class="cls-1" cx="52.26" cy="25.5" r="2.69"/>
    <circle class="cls-1" cx="53.56" cy="32.04" r="2.69"/>
    <circle class="cls-1" cx="40.49" cy="22.28" r="1.66"/>
    <circle class="cls-1" cx="43.91" cy="24.57" r="1.66"/>
    <circle class="cls-1" cx="46.21" cy="28" r="1.66"/>
    <circle class="cls-1" cx="47.04" cy="32.05" r="1.66"/>
    <circle class="cls-1" cx="38.94" cy="26.01" r="1.03"/>
    <circle class="cls-1" cx="41.05" cy="27.43" r="1.03"/>
    <circle class="cls-1" cx="42.47" cy="29.55" r="1.03"/>
    <circle class="cls-1" cx="42.97" cy="32.06" r="1.03"/>
  </g>
</svg>